<?plantuml 1.2026.1?><svg xmlns="http://www.w3.org/2000/svg" xmlns:xlink="http://www.w3.org/1999/xlink" contentStyleType="text/css" data-diagram-type="DESCRIPTION" height="358px" preserveAspectRatio="none" style="width:1067px;height:358px;background:#FFFFFF;" version="1.1" viewBox="0 0 1067 358" width="1067px" zoomAndPan="magnify"><title>Kryptographische Schichten</title><defs/><g><g class="title" data-source-line="379"><text fill="#000000" font-family="sans-serif" font-size="14" font-weight="bold" lengthAdjust="spacing" textLength="201.5029" x="425.7485" y="23.5352">Kryptographische Schichten</text></g><!--cluster Application Layer--><g class="cluster" data-qualified-name="Application Layer" data-source-line="381" id="ent0002"><path d="M8.5,43.4883 L135.2266,43.4883 A3.75,3.75 0 0 1 137.7266,45.9883 L144.7266,65.9766 L529.5,65.9766 A2.5,2.5 0 0 1 532,68.4766 L532,138.4683 A2.5,2.5 0 0 1 529.5,140.9683 L8.5,140.9683 A2.5,2.5 0 0 1 6,138.4683 L6,45.9883 A2.5,2.5 0 0 1 8.5,43.4883" fill="none" style="stroke:#000000;stroke-width:1.5;"/><line style="stroke:#000000;stroke-width:1.5;" x1="6" x2="144.7266" y1="65.9766" y2="65.9766"/><text fill="#000000" font-family="sans-serif" font-size="14" font-weight="bold" lengthAdjust="spacing" textLength="125.7266" x="10" y="59.0234">Application Layer</text></g><!--cluster Storage Layer--><g class="cluster" data-qualified-name="Storage Layer" data-source-line="387" id="ent0006"><path d="M669.5,43.4883 L768.8623,43.4883 A3.75,3.75 0 0 1 771.3623,45.9883 L778.3623,65.9766 L1057.5,65.9766 A2.5,2.5 0 0 1 1060,68.4766 L1060,138.4683 A2.5,2.5 0 0 1 1057.5,140.9683 L669.5,140.9683 A2.5,2.5 0 0 1 667,138.4683 L667,45.9883 A2.5,2.5 0 0 1 669.5,43.4883" fill="none" style="stroke:#000000;stroke-width:1.5;"/><line style="stroke:#000000;stroke-width:1.5;" x1="667" x2="778.3623" y1="65.9766" y2="65.9766"/><text fill="#000000" font-family="sans-serif" font-size="14" font-weight="bold" lengthAdjust="spacing" textLength="98.3623" x="671" y="59.0234">Storage Layer</text></g><!--cluster Key Management--><g class="cluster" data-qualified-name="Key Management" data-source-line="392" id="ent0009"><path d="M616.5,164.9683 L740.8682,164.9683 A3.75,3.75 0 0 1 743.3682,167.4683 L750.3682,187.4566 L950.5,187.4566 A2.5,2.5 0 0 1 953,189.9566 L953,259.9583 A2.5,2.5 0 0 1 950.5,262.4583 L616.5,262.4583 A2.5,2.5 0 0 1 614,259.9583 L614,167.4683 A2.5,2.5 0 0 1 616.5,164.9683" fill="none" style="stroke:#000000;stroke-width:1.5;"/><line style="stroke:#000000;stroke-width:1.5;" x1="614" x2="750.3682" y1="187.4566" y2="187.4566"/><text fill="#000000" font-family="sans-serif" font-size="14" font-weight="bold" lengthAdjust="spacing" textLength="123.3682" x="618" y="180.5034">Key Management</text></g><!--entity PH--><g class="entity" data-qualified-name="Application Layer.PH" data-source-line="382" id="ent0003"><rect fill="#F1F1F1" height="46.4883" rx="2.5" ry="2.5" style="stroke:#181818;stroke-width:0.5;" width="163.4092" x="22.3" y="78.4883"/><rect fill="#F1F1F1" height="10" style="stroke:#181818;stroke-width:0.5;" width="15" x="165.7092" y="83.4883"/><rect fill="#F1F1F1" height="2" style="stroke:#181818;stroke-width:0.5;" width="4" x="163.7092" y="85.4883"/><rect fill="#F1F1F1" height="2" style="stroke:#181818;stroke-width:0.5;" width="4" x="163.7092" y="89.4883"/><text fill="#000000" font-family="sans-serif" font-size="14" lengthAdjust="spacing" textLength="123.4092" x="37.3" y="112.0234">Password Hashing</text></g><!--entity ST--><g class="entity" data-qualified-name="Application Layer.ST" data-source-line="383" id="ent0004"><rect fill="#F1F1F1" height="46.4883" rx="2.5" ry="2.5" style="stroke:#181818;stroke-width:0.5;" width="144.6377" x="220.68" y="78.4883"/><rect fill="#F1F1F1" height="10" style="stroke:#181818;stroke-width:0.5;" width="15" x="345.3177" y="83.4883"/><rect fill="#F1F1F1" height="2" style="stroke:#181818;stroke-width:0.5;" width="4" x="343.3177" y="85.4883"/><rect fill="#F1F1F1" height="2" style="stroke:#181818;stroke-width:0.5;" width="4" x="343.3177" y="89.4883"/><text fill="#000000" font-family="sans-serif" font-size="14" lengthAdjust="spacing" textLength="104.6377" x="235.68" y="112.0234">Session Tokens</text></g><!--entity AT--><g class="entity" data-qualified-name="Application Layer.AT" data-source-line="384" id="ent0005"><rect fill="#F1F1F1" height="46.4883" rx="2.5" ry="2.5" style="stroke:#181818;stroke-width:0.5;" width="115.1201" x="400.44" y="78.4883"/><rect fill="#F1F1F1" height="10" style="stroke:#181818;stroke-width:0.5;" width="15" x="495.5601" y="83.4883"/><rect fill="#F1F1F1" height="2" style="stroke:#181818;stroke-width:0.5;" width="4" x="493.5601" y="85.4883"/><rect fill="#F1F1F1" height="2" style="stroke:#181818;stroke-width:0.5;" width="4" x="493.5601" y="89.4883"/><text fill="#000000" font-family="sans-serif" font-size="14" lengthAdjust="spacing" textLength="75.1201" x="415.44" y="112.0234">API Tokens</text></g><!--entity EBS--><g class="entity" data-qualified-name="Storage Layer.EBS" data-source-line="388" id="ent0007"><rect fill="#F1F1F1" height="46.4883" rx="2.5" ry="2.5" style="stroke:#181818;stroke-width:0.5;" width="180.4238" x="682.79" y="78.4883"/><rect fill="#F1F1F1" height="10" style="stroke:#181818;stroke-width:0.5;" width="15" x="843.2138" y="83.4883"/><rect fill="#F1F1F1" height="2" style="stroke:#181818;stroke-width:0.5;" width="4" x="841.2138" y="85.4883"/><rect fill="#F1F1F1" height="2" style="stroke:#181818;stroke-width:0.5;" width="4" x="841.2138" y="89.4883"/><text fill="#000000" font-family="sans-serif" font-size="14" lengthAdjust="spacing" textLength="140.4238" x="697.79" y="112.0234">Encrypted Blob Store</text></g><!--entity PBS--><g class="entity" data-qualified-name="Storage Layer.PBS" data-source-line="389" id="ent0008"><rect fill="#F1F1F1" height="46.4883" rx="2.5" ry="2.5" style="stroke:#181818;stroke-width:0.5;" width="145.5264" x="898.24" y="78.4883"/><rect fill="#F1F1F1" height="10" style="stroke:#181818;stroke-width:0.5;" width="15" x="1023.7664" y="83.4883"/><rect fill="#F1F1F1" height="2" style="stroke:#181818;stroke-width:0.5;" width="4" x="1021.7664" y="85.4883"/><rect fill="#F1F1F1" height="2" style="stroke:#181818;stroke-width:0.5;" width="4" x="1021.7664" y="89.4883"/><text fill="#000000" font-family="sans-serif" font-size="14" lengthAdjust="spacing" textLength="105.5264" x="913.24" y="112.0234">Plain Blob Store</text></g><!--entity MK--><g class="entity" data-qualified-name="Key Management.MK" data-source-line="393" id="ent0010"><rect fill="#F1F1F1" height="46.4883" rx="2.5" ry="2.5" style="stroke:#181818;stroke-width:0.5;" width="114.375" x="629.81" y="199.9683"/><rect fill="#F1F1F1" height="10" style="stroke:#181818;stroke-width:0.5;" width="15" x="724.185" y="204.9683"/><rect fill="#F1F1F1" height="2" style="stroke:#181818;stroke-width:0.5;" width="4" x="722.185" y="206.9683"/><rect fill="#F1F1F1" height="2" style="stroke:#181818;stroke-width:0.5;" width="4" x="722.185" y="210.9683"/><text fill="#000000" font-family="sans-serif" font-size="14" lengthAdjust="spacing" textLength="74.375" x="644.81" y="233.5034">Master Key</text></g><!--entity PN--><g class="entity" data-qualified-name="Key Management.PN" data-source-line="394" id="ent0011"><rect fill="#F1F1F1" height="46.4883" rx="2.5" ry="2.5" style="stroke:#181818;stroke-width:0.5;" width="158.0908" x="778.95" y="199.9683"/><rect fill="#F1F1F1" height="10" style="stroke:#181818;stroke-width:0.5;" width="15" x="917.0408" y="204.9683"/><rect fill="#F1F1F1" height="2" style="stroke:#181818;stroke-width:0.5;" width="4" x="915.0408" y="206.9683"/><rect fill="#F1F1F1" height="2" style="stroke:#181818;stroke-width:0.5;" width="4" x="915.0408" y="210.9683"/><text fill="#000000" font-family="sans-serif" font-size="14" lengthAdjust="spacing" textLength="118.0908" x="793.95" y="233.5034">Per-Entry Nonces</text></g><!--entity Argon2id--><g class="entity" data-qualified-name="Argon2id" data-source-line="397" id="ent0012"><rect fill="#F1F1F1" height="46.4883" rx="2.5" ry="2.5" style="stroke:#181818;stroke-width:0.5;" width="103.1162" x="52.44" y="199.9683"/><rect fill="#F1F1F1" height="10" style="stroke:#181818;stroke-width:0.5;" width="15" x="135.5562" y="204.9683"/><rect fill="#F1F1F1" height="2" style="stroke:#181818;stroke-width:0.5;" width="4" x="133.5562" y="206.9683"/><rect fill="#F1F1F1" height="2" style="stroke:#181818;stroke-width:0.5;" width="4" x="133.5562" y="210.9683"/><text fill="#000000" font-family="sans-serif" font-size="14" lengthAdjust="spacing" textLength="63.1162" x="67.44" y="233.5034">Argon2id</text></g><!--entity Random Generation--><g class="entity" data-qualified-name="Random Generation" data-source-line="398" id="ent0014"><rect fill="#F1F1F1" height="46.4883" rx="2.5" ry="2.5" style="stroke:#181818;stroke-width:0.5;" width="174.6201" x="197.69" y="199.9683"/><rect fill="#F1F1F1" height="10" style="stroke:#181818;stroke-width:0.5;" width="15" x="352.3101" y="204.9683"/><rect fill="#F1F1F1" height="2" style="stroke:#181818;stroke-width:0.5;" width="4" x="350.3101" y="206.9683"/><rect fill="#F1F1F1" height="2" style="stroke:#181818;stroke-width:0.5;" width="4" x="350.3101" y="210.9683"/><text fill="#000000" font-family="sans-serif" font-size="14" lengthAdjust="spacing" textLength="134.6201" x="212.69" y="233.5034">Random Generation</text></g><!--entity Argon2id without Salt--><g class="entity" data-qualified-name="Argon2id without Salt" data-source-line="399" id="ent0016"><rect fill="#F1F1F1" height="46.4883" rx="2.5" ry="2.5" style="stroke:#181818;stroke-width:0.5;" width="187.8135" x="407.09" y="199.9683"/><rect fill="#F1F1F1" height="10" style="stroke:#181818;stroke-width:0.5;" width="15" x="574.9035" y="204.9683"/><rect fill="#F1F1F1" height="2" style="stroke:#181818;stroke-width:0.5;" width="4" x="572.9035" y="206.9683"/><rect fill="#F1F1F1" height="2" style="stroke:#181818;stroke-width:0.5;" width="4" x="572.9035" y="210.9683"/><text fill="#000000" font-family="sans-serif" font-size="14" lengthAdjust="spacing" textLength="147.8135" x="422.09" y="233.5034">Argon2id without Salt</text></g><!--entity AES-GCM-256--><g class="entity" data-qualified-name="AES-GCM-256" data-source-line="403" id="ent0020"><rect fill="#F1F1F1" height="46.4883" rx="2.5" ry="2.5" style="stroke:#181818;stroke-width:0.5;" width="139.4082" x="702.3" y="306.4583"/><rect fill="#F1F1F1" height="10" style="stroke:#181818;stroke-width:0.5;" width="15" x="821.7082" y="311.4583"/><rect fill="#F1F1F1" height="2" style="stroke:#181818;stroke-width:0.5;" width="4" x="819.7082" y="313.4583"/><rect fill="#F1F1F1" height="2" style="stroke:#181818;stroke-width:0.5;" width="4" x="819.7082" y="317.4583"/><text fill="#000000" font-family="sans-serif" font-size="14" lengthAdjust="spacing" textLength="99.4082" x="717.3" y="339.9934">AES-GCM-256</text></g><!--link PH to Argon2id--><g class="link" data-entity-1="ent0003" data-entity-2="ent0012" data-link-type="dependency" data-source-line="397" id="lnk13"><path d="M104,125.1983 C104,146.5683 104,172.5083 104,193.8383" fill="none" id="PH-to-Argon2id" style="stroke:#181818;stroke-width:1;"/><polygon fill="#181818" points="104,199.8383,108,190.8383,104,194.8383,100,190.8383,104,199.8383" style="stroke:#181818;stroke-width:1;"/></g><!--link ST to Random Generation--><g class="link" data-entity-1="ent0004" data-entity-2="ent0014" data-link-type="dependency" data-source-line="398" id="lnk15"><path d="M291.5,125.1983 C290.06,146.5683 288.3313,172.5217 286.9013,193.8517" fill="none" id="ST-to-Random Generation" style="stroke:#181818;stroke-width:1;"/><polygon fill="#181818" points="286.5,199.8383,291.0931,191.126,286.8345,194.8495,283.111,190.5909,286.5,199.8383" style="stroke:#181818;stroke-width:1;"/></g><!--link AT to Argon2id without Salt--><g class="link" data-entity-1="ent0005" data-entity-2="ent0016" data-link-type="dependency" data-source-line="399" id="lnk17"><path d="M466.09,125.1983 C473.78,146.5683 483.2374,172.8631 490.9174,194.1931" fill="none" id="AT-to-Argon2id without Salt" style="stroke:#181818;stroke-width:1;"/><polygon fill="#181818" points="492.95,199.8383,493.6646,190.0154,491.2562,195.1339,486.1376,192.7255,492.95,199.8383" style="stroke:#181818;stroke-width:1;"/></g><!--link EBS to MK--><g class="link" data-entity-1="ent0007" data-entity-2="ent0010" data-link-type="dependency" data-source-line="401" id="lnk18"><path d="M756.82,125.1983 C741.45,146.5683 721.9547,173.6383 706.6047,194.9683" fill="none" id="EBS-to-MK" style="stroke:#181818;stroke-width:1;"/><polygon fill="#181818" points="703.1,199.8383,711.6037,194.8697,706.0206,195.7799,705.1103,190.1968,703.1,199.8383" style="stroke:#181818;stroke-width:1;"/></g><!--link EBS to PN--><g class="link" data-entity-1="ent0007" data-entity-2="ent0011" data-link-type="dependency" data-source-line="402" id="lnk19"><path d="M788.99,125.1983 C804.18,146.5683 823.4326,173.6188 838.6026,194.9488" fill="none" id="EBS-to-PN" style="stroke:#181818;stroke-width:1;"/><polygon fill="#181818" points="842.08,199.8383,840.1235,190.1857,839.1821,195.7637,833.6042,194.8223,842.08,199.8383" style="stroke:#181818;stroke-width:1;"/></g><!--link MK to AES-GCM-256--><g class="link" data-entity-1="ent0010" data-entity-2="ent0020" data-link-type="dependency" data-source-line="403" id="lnk21"><path d="M705.44,246.8883 C719.7,264.4183 735.554,283.9035 749.804,301.4235" fill="none" id="MK-to-AES-GCM-256" style="stroke:#181818;stroke-width:1;"/><polygon fill="#181818" points="753.59,306.0783,751.0142,296.5722,750.435,302.1993,744.8079,301.6202,753.59,306.0783" style="stroke:#181818;stroke-width:1;"/></g><!--link PN to AES-GCM-256--><g class="link" data-entity-1="ent0011" data-entity-2="ent0020" data-link-type="dependency" data-source-line="404" id="lnk22"><path d="M839.34,246.8883 C824.91,264.4183 808.8529,283.9256 794.4329,301.4456" fill="none" id="PN-to-AES-GCM-256" style="stroke:#181818;stroke-width:1;"/><polygon fill="#181818" points="790.62,306.0783,799.4279,301.6713,793.7975,302.2177,793.251,296.5873,790.62,306.0783" style="stroke:#181818;stroke-width:1;"/></g><?plantuml-src RL3BQiCm4BphAvRSVGcqnu9JJ58S6r7vLdpOoeijugoCf19CwRzNVhGufJeDCpipkmecz0Iv6uTWMuT3Pxpk29JkZEu2iH03wWks1Bjq67gZCHZBSCQHt0u-1SJt9j7xctKDdD1tXjiQq8CyBQ8YxoTBPI_4VfPKjKYfVDdIQIM-DdqgM3U1-wwCzRGiDN3exJjCGpIxiuDQj-dHy5zLHdKRdjC81NB4L-BmcrwW3-GWghEhoDT8Sad6mOrGMjQqh2lBAL6U84cUuYskjRmtJIrKjJ2lo8szmf6OtFnhjKYh-s6ucT3PZm0A-r0B4M-O1sBl3umjHRwwCfKSduja__1O2rd-Gtu3?></g></svg>