<?plantuml 1.2026.1?><svg xmlns="http://www.w3.org/2000/svg" xmlns:xlink="http://www.w3.org/1999/xlink" contentStyleType="text/css" data-diagram-type="SEQUENCE" height="581px" preserveAspectRatio="none" style="width:459px;height:581px;background:#FFFFFF;" version="1.1" viewBox="0 0 459 581" width="459px" zoomAndPan="magnify"><title>SSO Authentication Flow</title><defs/><g><text fill="#000000" font-family="sans-serif" font-size="14" font-weight="bold" lengthAdjust="spacing" textLength="176.4014" x="140.6287" y="28.5352">SSO Authentication Flow</text><g class="participant-lifeline" data-entity-uid="part1" data-qualified-name="User" id="part1-lifeline"><g><title>User</title><rect fill="#000000" fill-opacity="0.00000" height="381.416" width="8" x="19.1826" y="118.9766"/><line style="stroke:#181818;stroke-width:0.5;stroke-dasharray:5,5;" x1="23" x2="23" y1="118.9766" y2="500.3926"/></g></g><g class="participant-lifeline" data-entity-uid="part2" data-qualified-name="App" id="part2-lifeline"><g><title>Nago App</title><rect fill="#000000" fill-opacity="0.00000" height="381.416" width="8" x="182.6279" y="118.9766"/><line style="stroke:#181818;stroke-width:0.5;stroke-dasharray:5,5;" x1="186.0703" x2="186.0703" y1="118.9766" y2="500.3926"/></g></g><g class="participant-lifeline" data-entity-uid="part3" data-qualified-name="NLS" id="part3-lifeline"><g><title>NLS Provider</title><rect fill="#000000" fill-opacity="0.00000" height="381.416" width="8" x="399.9204" y="118.9766"/><line style="stroke:#181818;stroke-width:0.5;stroke-dasharray:5,5;" x1="403.1821" x2="403.1821" y1="118.9766" y2="500.3926"/></g></g><g class="participant participant-head" data-entity-uid="part1" data-qualified-name="User" id="part1-head"><text fill="#000000" font-family="sans-serif" font-size="14" lengthAdjust="spacing" textLength="30.3652" x="5" y="116.0234">User</text><ellipse cx="23.1826" cy="50.9883" fill="#E2E2F0" rx="8" ry="8" style="stroke:#181818;stroke-width:0.5;"/><path d="M23.1826,58.9883 L23.1826,85.9883 M10.1826,66.9883 L36.1826,66.9883 M23.1826,85.9883 L10.1826,100.9883 M23.1826,85.9883 L36.1826,100.9883" fill="none" style="stroke:#181818;stroke-width:0.5;"/></g><g class="participant participant-tail" data-entity-uid="part1" data-qualified-name="User" id="part1-tail"><text fill="#000000" font-family="sans-serif" font-size="14" lengthAdjust="spacing" textLength="30.3652" x="5" y="512.9277">User</text><ellipse cx="23.1826" cy="524.3809" fill="#E2E2F0" rx="8" ry="8" style="stroke:#181818;stroke-width:0.5;"/><path d="M23.1826,532.3809 L23.1826,559.3809 M10.1826,540.3809 L36.1826,540.3809 M23.1826,559.3809 L10.1826,574.3809 M23.1826,559.3809 L36.1826,574.3809" fill="none" style="stroke:#181818;stroke-width:0.5;"/></g><g class="participant participant-head" data-entity-uid="part2" data-qualified-name="App" id="part2-head"><rect fill="#E2E2F0" height="30.4883" rx="2.5" ry="2.5" style="stroke:#181818;stroke-width:0.5;" width="81.1152" x="146.0703" y="87.4883"/><text fill="#000000" font-family="sans-serif" font-size="14" lengthAdjust="spacing" textLength="67.1152" x="153.0703" y="108.0234">Nago App</text></g><g class="participant participant-tail" data-entity-uid="part2" data-qualified-name="App" id="part2-tail"><rect fill="#E2E2F0" height="30.4883" rx="2.5" ry="2.5" style="stroke:#181818;stroke-width:0.5;" width="81.1152" x="146.0703" y="499.3926"/><text fill="#000000" font-family="sans-serif" font-size="14" lengthAdjust="spacing" textLength="67.1152" x="153.0703" y="519.9277">Nago App</text></g><g class="participant participant-head" data-entity-uid="part3" data-qualified-name="NLS" id="part3-head"><rect fill="#E2E2F0" height="30.4883" rx="2.5" ry="2.5" style="stroke:#181818;stroke-width:0.5;" width="99.4766" x="354.1821" y="87.4883"/><text fill="#000000" font-family="sans-serif" font-size="14" lengthAdjust="spacing" textLength="85.4766" x="361.1821" y="108.0234">NLS Provider</text></g><g class="participant participant-tail" data-entity-uid="part3" data-qualified-name="NLS" id="part3-tail"><rect fill="#E2E2F0" height="30.4883" rx="2.5" ry="2.5" style="stroke:#181818;stroke-width:0.5;" width="99.4766" x="354.1821" y="499.3926"/><text fill="#000000" font-family="sans-serif" font-size="14" lengthAdjust="spacing" textLength="85.4766" x="361.1821" y="519.9277">NLS Provider</text></g><g class="message" data-entity-1="part1" data-entity-2="part2" id="msg1"><polygon fill="#181818" points="174.6279,146.2871,184.6279,150.2871,174.6279,154.2871,178.6279,150.2871" style="stroke:#181818;stroke-width:1;"/><line style="stroke:#181818;stroke-width:1;" x1="23.1826" x2="180.6279" y1="150.2871" y2="150.2871"/><text fill="#000000" font-family="sans-serif" font-size="13" lengthAdjust="spacing" textLength="92.0347" x="30.1826" y="145.5449">Login-Anfrage</text></g><g class="message" data-entity-1="part2" data-entity-2="part2" id="msg2"><line style="stroke:#181818;stroke-width:1;" x1="186.6279" x2="228.6279" y1="179.5977" y2="179.5977"/><line style="stroke:#181818;stroke-width:1;" x1="228.6279" x2="228.6279" y1="179.5977" y2="192.5977"/><line style="stroke:#181818;stroke-width:1;" x1="187.6279" x2="228.6279" y1="192.5977" y2="192.5977"/><polygon fill="#181818" points="197.6279,188.5977,187.6279,192.5977,197.6279,196.5977,193.6279,192.5977" style="stroke:#181818;stroke-width:1;"/><text fill="#000000" font-family="sans-serif" font-size="13" lengthAdjust="spacing" textLength="89.9463" x="193.6279" y="174.8555">StartNLSFlow()</text></g><g class="message" data-entity-1="part2" data-entity-2="part3" id="msg3"><polygon fill="#181818" points="391.9204,217.9082,401.9204,221.9082,391.9204,225.9082,395.9204,221.9082" style="stroke:#181818;stroke-width:1;"/><line style="stroke:#181818;stroke-width:1;" x1="186.6279" x2="397.9204" y1="221.9082" y2="221.9082"/><text fill="#000000" font-family="sans-serif" font-size="13" lengthAdjust="spacing" textLength="193.2925" x="193.6279" y="217.166">OAuth2 Authorization Request</text></g><g class="message" data-entity-1="part3" data-entity-2="part1" id="msg4"><polygon fill="#181818" points="34.1826,247.2188,24.1826,251.2188,34.1826,255.2188,30.1826,251.2188" style="stroke:#181818;stroke-width:1;"/><line style="stroke:#181818;stroke-width:1;" x1="28.1826" x2="402.9204" y1="251.2188" y2="251.2188"/><text fill="#000000" font-family="sans-serif" font-size="13" lengthAdjust="spacing" textLength="99.106" x="40.1826" y="246.4766">Login-Formular</text></g><g class="message" data-entity-1="part1" data-entity-2="part3" id="msg5"><polygon fill="#181818" points="391.9204,276.5293,401.9204,280.5293,391.9204,284.5293,395.9204,280.5293" style="stroke:#181818;stroke-width:1;"/><line style="stroke:#181818;stroke-width:1;" x1="23.1826" x2="397.9204" y1="280.5293" y2="280.5293"/><text fill="#000000" font-family="sans-serif" font-size="13" lengthAdjust="spacing" textLength="71.2334" x="30.1826" y="275.7871">Credentials</text></g><g class="message" data-entity-1="part3" data-entity-2="part2" id="msg6"><polygon fill="#181818" points="197.6279,305.8398,187.6279,309.8398,197.6279,313.8398,193.6279,309.8398" style="stroke:#181818;stroke-width:1;"/><line style="stroke:#181818;stroke-width:1;" x1="191.6279" x2="402.9204" y1="309.8398" y2="309.8398"/><text fill="#000000" font-family="sans-serif" font-size="13" lengthAdjust="spacing" textLength="122.8525" x="203.6279" y="305.0977">Authorization Code</text></g><g class="message" data-entity-1="part2" data-entity-2="part2" id="msg7"><line style="stroke:#181818;stroke-width:1;" x1="186.6279" x2="228.6279" y1="339.1504" y2="339.1504"/><line style="stroke:#181818;stroke-width:1;" x1="228.6279" x2="228.6279" y1="339.1504" y2="352.1504"/><line style="stroke:#181818;stroke-width:1;" x1="187.6279" x2="228.6279" y1="352.1504" y2="352.1504"/><polygon fill="#181818" points="197.6279,348.1504,187.6279,352.1504,197.6279,356.1504,193.6279,352.1504" style="stroke:#181818;stroke-width:1;"/><text fill="#000000" font-family="sans-serif" font-size="13" lengthAdjust="spacing" textLength="92.333" x="193.6279" y="334.4082">ExchangeNLS()</text></g><g class="message" data-entity-1="part2" data-entity-2="part3" id="msg8"><polygon fill="#181818" points="391.9204,377.4609,401.9204,381.4609,391.9204,385.4609,395.9204,381.4609" style="stroke:#181818;stroke-width:1;"/><line style="stroke:#181818;stroke-width:1;" x1="186.6279" x2="397.9204" y1="381.4609" y2="381.4609"/><text fill="#000000" font-family="sans-serif" font-size="13" lengthAdjust="spacing" textLength="103.5684" x="193.6279" y="376.7188">Token Exchange</text></g><g class="message" data-entity-1="part3" data-entity-2="part2" id="msg9"><polygon fill="#181818" points="197.6279,406.7715,187.6279,410.7715,197.6279,414.7715,193.6279,410.7715" style="stroke:#181818;stroke-width:1;"/><line style="stroke:#181818;stroke-width:1;" x1="191.6279" x2="402.9204" y1="410.7715" y2="410.7715"/><text fill="#000000" font-family="sans-serif" font-size="13" lengthAdjust="spacing" textLength="152.0708" x="203.6279" y="406.0293">Access + Refresh Token</text></g><g class="message" data-entity-1="part2" data-entity-2="part2" id="msg10"><line style="stroke:#181818;stroke-width:1;" x1="186.6279" x2="228.6279" y1="440.082" y2="440.082"/><line style="stroke:#181818;stroke-width:1;" x1="228.6279" x2="228.6279" y1="440.082" y2="453.082"/><line style="stroke:#181818;stroke-width:1;" x1="187.6279" x2="228.6279" y1="453.082" y2="453.082"/><polygon fill="#181818" points="197.6279,449.082,187.6279,453.082,197.6279,457.082,193.6279,453.082" style="stroke:#181818;stroke-width:1;"/><text fill="#000000" font-family="sans-serif" font-size="13" lengthAdjust="spacing" textLength="158.793" x="193.6279" y="435.3398">MergeSingleSignOnUser()</text></g><g class="message" data-entity-1="part2" data-entity-2="part1" id="msg11"><polygon fill="#181818" points="34.1826,478.3926,24.1826,482.3926,34.1826,486.3926,30.1826,482.3926" style="stroke:#181818;stroke-width:1;"/><line style="stroke:#181818;stroke-width:1;" x1="28.1826" x2="185.6279" y1="482.3926" y2="482.3926"/><text fill="#000000" font-family="sans-serif" font-size="13" lengthAdjust="spacing" textLength="139.4453" x="40.1826" y="477.6504">Authenticated Session</text></g><?plantuml-src NP71JiCm44Jl_efLJo3KIuyz84KLFHM2C7p0Ajaw5cQThXr0V3thH0ca5rlQcPrvbhFFWS3Q6geXTyJPDvXzP3Y6-6KCDZaAl2KIqwEew7la39idT16gljy0fd9VgISBpn8_VKioEdHWJ4c1xNsnx-4KdUTjnMT1HqP7YsApHkb20RYvdIKTxA4kZBkHD8h_cK1Vw39GogQKgh6qpF77A1z3G5cgnvI3K5iUYY7DIsFnElOGspNNmtVJ8JlIbIkir_XElEZhpAQXbE1EASz2gPkygzn74aVMimjwEgwvmFurJE_vzpdKWjLCPJI_?></g></svg>