<?plantuml 1.2026.1?><svg xmlns="http://www.w3.org/2000/svg" xmlns:xlink="http://www.w3.org/1999/xlink" contentStyleType="text/css" data-diagram-type="DESCRIPTION" height="307px" preserveAspectRatio="none" style="width:1606px;height:307px;background:#FFFFFF;" version="1.1" viewBox="0 0 1606 307" width="1606px" zoomAndPan="magnify"><title>STRIDE Bedrohungsmodell - Nago Framework</title><defs/><g><g class="title" data-source-line="13"><text fill="#000000" font-family="sans-serif" font-size="14" font-weight="bold" lengthAdjust="spacing" textLength="332.1309" x="630.2774" y="23.5352">STRIDE Bedrohungsmodell - Nago Framework</text></g><!--cluster Bedrohungen--><g class="cluster" data-qualified-name="Bedrohungen" data-source-line="15" id="ent0002"><rect fill="none" height="103.97" rx="2.5" ry="2.5" style="stroke:#181818;stroke-width:1;" width="762" x="333.92" y="44.4883"/><text fill="#000000" font-family="sans-serif" font-size="14" font-weight="bold" lengthAdjust="spacing" textLength="95.8193" x="667.0103" y="60.0234">Bedrohungen</text></g><!--cluster Komponenten--><g class="cluster" data-qualified-name="Komponenten" data-source-line="24" id="ent0009"><rect fill="none" height="103.98" rx="2.5" ry="2.5" style="stroke:#181818;stroke-width:1;" width="750" x="395.92" y="197.4583"/><text fill="#000000" font-family="sans-serif" font-size="14" font-weight="bold" lengthAdjust="spacing" textLength="100.3379" x="720.7511" y="212.9934">Komponenten</text></g><!--entity S--><g class="entity" data-qualified-name="Bedrohungen.S" data-source-line="16" id="ent0003"><rect fill="#FFCCCC" height="36.4883" rx="2.5" ry="2.5" style="stroke:#181818;stroke-width:0.5;" width="80.1631" x="883.84" y="87.7283"/><text fill="#000000" font-family="sans-serif" font-size="14" lengthAdjust="spacing" textLength="60.1631" x="893.84" y="111.2634">Spoofing</text></g><!--entity T--><g class="entity" data-qualified-name="Bedrohungen.T" data-source-line="17" id="ent0004"><rect fill="#FFDDCC" height="36.4883" rx="2.5" ry="2.5" style="stroke:#181818;stroke-width:0.5;" width="93.459" x="350.19" y="87.7283"/><text fill="#000000" font-family="sans-serif" font-size="14" lengthAdjust="spacing" textLength="73.459" x="360.19" y="111.2634">Tampering</text></g><!--entity R--><g class="entity" data-qualified-name="Bedrohungen.R" data-source-line="18" id="ent0005"><rect fill="#FFFFCC" height="36.4883" rx="2.5" ry="2.5" style="stroke:#181818;stroke-width:0.5;" width="101.3135" x="613.26" y="87.7283"/><text fill="#000000" font-family="sans-serif" font-size="14" lengthAdjust="spacing" textLength="81.3135" x="623.26" y="111.2634">Repudiation</text></g><!--entity I--><g class="entity" data-qualified-name="Bedrohungen.I" data-source-line="19" id="ent0006"><rect fill="#CCFFCC" height="52.9766" rx="2.5" ry="2.5" style="stroke:#181818;stroke-width:0.5;" width="99.5703" x="479.14" y="79.4883"/><text fill="#000000" font-family="sans-serif" font-size="14" lengthAdjust="spacing" textLength="79.5703" x="489.14" y="103.0234">Information</text><text fill="#000000" font-family="sans-serif" font-size="14" lengthAdjust="spacing" textLength="70.8408" x="489.14" y="119.5117">Disclosure</text></g><!--entity D--><g class="entity" data-qualified-name="Bedrohungen.D" data-source-line="20" id="ent0007"><rect fill="#CCCCFF" height="52.9766" rx="2.5" ry="2.5" style="stroke:#181818;stroke-width:0.5;" width="80.9766" x="999.43" y="79.4883"/><text fill="#000000" font-family="sans-serif" font-size="14" lengthAdjust="spacing" textLength="60.9766" x="1009.43" y="103.0234">Denial of</text><text fill="#000000" font-family="sans-serif" font-size="14" lengthAdjust="spacing" textLength="47.332" x="1009.43" y="119.5117">Service</text></g><!--entity E--><g class="entity" data-qualified-name="Bedrohungen.E" data-source-line="21" id="ent0008"><rect fill="#FFCCFF" height="52.9766" rx="2.5" ry="2.5" style="stroke:#181818;stroke-width:0.5;" width="99.1602" x="749.34" y="79.4883"/><text fill="#000000" font-family="sans-serif" font-size="14" lengthAdjust="spacing" textLength="79.1602" x="759.34" y="103.0234">Elevation of</text><text fill="#000000" font-family="sans-serif" font-size="14" lengthAdjust="spacing" textLength="57.1826" x="759.34" y="119.5117">Privilege</text></g><!--entity SM--><g class="entity" data-qualified-name="Komponenten.SM" data-source-line="25" id="ent0010"><rect fill="#F1F1F1" height="52.9766" rx="2.5" ry="2.5" style="stroke:#181818;stroke-width:0.5;" width="107.5342" x="751.15" y="232.4583"/><text fill="#000000" font-family="sans-serif" font-size="14" lengthAdjust="spacing" textLength="50.9482" x="761.15" y="255.9934">Session</text><text fill="#000000" font-family="sans-serif" font-size="14" lengthAdjust="spacing" textLength="87.5342" x="761.15" y="272.4817">Management</text></g><!--entity UM--><g class="entity" data-qualified-name="Komponenten.UM" data-source-line="26" id="ent0011"><rect fill="#F1F1F1" height="52.9766" rx="2.5" ry="2.5" style="stroke:#181818;stroke-width:0.5;" width="107.5342" x="894.15" y="232.4583"/><text fill="#000000" font-family="sans-serif" font-size="14" lengthAdjust="spacing" textLength="30.3652" x="904.15" y="255.9934">User</text><text fill="#000000" font-family="sans-serif" font-size="14" lengthAdjust="spacing" textLength="87.5342" x="904.15" y="272.4817">Management</text></g><!--entity PM--><g class="entity" data-qualified-name="Komponenten.PM" data-source-line="27" id="ent0012"><rect fill="#F1F1F1" height="52.9766" rx="2.5" ry="2.5" style="stroke:#181818;stroke-width:0.5;" width="93.9922" x="621.92" y="232.4583"/><text fill="#000000" font-family="sans-serif" font-size="14" lengthAdjust="spacing" textLength="73.9922" x="631.92" y="255.9934">Permission</text><text fill="#000000" font-family="sans-serif" font-size="14" lengthAdjust="spacing" textLength="48.0977" x="631.92" y="272.4817">System</text></g><!--entity BS--><g class="entity" data-qualified-name="Komponenten.BS" data-source-line="28" id="ent0013"><rect fill="#F1F1F1" height="52.9766" rx="2.5" ry="2.5" style="stroke:#181818;stroke-width:0.5;" width="71.3652" x="412.24" y="232.4583"/><text fill="#000000" font-family="sans-serif" font-size="14" lengthAdjust="spacing" textLength="29.5107" x="422.24" y="255.9934">Blob</text><text fill="#000000" font-family="sans-serif" font-size="14" lengthAdjust="spacing" textLength="51.3652" x="422.24" y="272.4817">Storage</text></g><!--entity BU--><g class="entity" data-qualified-name="Komponenten.BU" data-source-line="29" id="ent0014"><rect fill="#F1F1F1" height="52.9766" rx="2.5" ry="2.5" style="stroke:#181818;stroke-width:0.5;" width="68.6377" x="518.6" y="232.4583"/><text fill="#000000" font-family="sans-serif" font-size="14" lengthAdjust="spacing" textLength="48.6377" x="528.6" y="255.9934">Backup</text><text fill="#000000" font-family="sans-serif" font-size="14" lengthAdjust="spacing" textLength="48.0977" x="528.6" y="272.4817">System</text></g><!--entity WS--><g class="entity" data-qualified-name="Komponenten.WS" data-source-line="30" id="ent0015"><rect fill="#F1F1F1" height="36.4883" rx="2.5" ry="2.5" style="stroke:#181818;stroke-width:0.5;" width="93.1172" x="1036.36" y="240.7083"/><text fill="#000000" font-family="sans-serif" font-size="14" lengthAdjust="spacing" textLength="73.1172" x="1046.36" y="264.2434">WebSocket</text></g><!--link S to SM--><g class="link" data-entity-1="ent0003" data-entity-2="ent0010" data-link-type="dependency" data-source-line="33" id="lnk16"><path d="M938.8,124.3083 C949.54,135.5583 965.08,149.3783 981.92,156.4583 C1000.23,164.1583 1057.52,149.8083 1070.92,164.4583 C1076.02,170.0383 1076.15,176.0083 1070.92,181.4583 C1055.98,197.0283 896.79,181.0483 876.92,189.4583 C855.64,198.4783 840.7794,212.2427 827.7594,227.6727" fill="none" id="S-to-SM" style="stroke:#181818;stroke-width:1;"/><polygon fill="#181818" points="823.89,232.2583,832.7512,227.9595,827.1145,228.4369,826.637,222.8003,823.89,232.2583" style="stroke:#181818;stroke-width:1;"/><text fill="#000000" font-family="sans-serif" font-size="13" lengthAdjust="spacing" textLength="110.0557" x="1075.79" y="178.0266">Session Hijacking</text></g><!--link S to UM--><g class="link" data-entity-1="ent0003" data-entity-2="ent0011" data-link-type="dependency" data-source-line="34" id="lnk17"><path d="M938.67,124.6183 C949.37,135.9983 964.89,149.8583 981.92,156.4583 C994.41,161.2983 1213.61,154.8283 1222.92,164.4583 C1228.17,169.8883 1228.16,176.0183 1222.92,181.4583 C1207.2,197.8083 1039.79,180.5583 1018.92,189.4583 C997.81,198.4683 983.1811,212.1906 970.3711,227.6306" fill="none" id="S-to-UM" style="stroke:#181818;stroke-width:1;"/><polygon fill="#181818" points="966.54,232.2483,975.3651,227.8759,969.7326,228.4002,969.2082,222.7677,966.54,232.2483" style="stroke:#181818;stroke-width:1;"/><text fill="#000000" font-family="sans-serif" font-size="13" lengthAdjust="spacing" textLength="84.7983" x="1227.85" y="178.0266">Identity Theft</text></g><!--link T to BS--><g class="link" data-entity-1="ent0004" data-entity-2="ent0013" data-link-type="dependency" data-source-line="35" id="lnk18"><path d="M349.75,109.1283 C245.15,114.8183 6,133.2283 45.92,181.4583 C92.35,237.5583 316.2056,252.5998 405.9456,256.4698" fill="none" id="T-to-BS" style="stroke:#181818;stroke-width:1;"/><polygon fill="#181818" points="411.94,256.7283,403.1207,252.3442,406.9446,256.5129,402.776,260.3368,411.94,256.7283" style="stroke:#181818;stroke-width:1;"/><text fill="#000000" font-family="sans-serif" font-size="13" lengthAdjust="spacing" textLength="115.1338" x="46.92" y="178.0266">Data Manipulation</text></g><!--link T to BU--><g class="link" data-entity-1="ent0004" data-entity-2="ent0014" data-link-type="dependency" data-source-line="36" id="lnk19"><path d="M349.86,120.4183 C310.81,133.7883 265.35,155.9483 289.92,181.4583 C306.19,198.3583 480.11,178.6383 500.92,189.4583 C518.54,198.6283 528.9002,211.5405 537.6602,226.8505" fill="none" id="T-to-BU" style="stroke:#181818;stroke-width:1;"/><polygon fill="#181818" points="540.64,232.0583,539.6422,222.2601,538.1569,227.7185,532.6985,226.2331,540.64,232.0583" style="stroke:#181818;stroke-width:1;"/><text fill="#000000" font-family="sans-serif" font-size="13" lengthAdjust="spacing" textLength="117.4888" x="290.92" y="178.0266">Backup Tampering</text></g><!--link R to PM--><g class="link" data-entity-1="ent0005" data-entity-2="ent0012" data-link-type="dependency" data-source-line="37" id="lnk20"><path d="M662.76,124.5783 C662.08,135.9483 661.27,151.0783 660.92,164.4583 C660.72,172.0183 660.53,173.9183 660.92,181.4583 C661.8,198.3983 663.068,211.3907 664.838,226.2007" fill="none" id="R-to-PM" style="stroke:#181818;stroke-width:1;"/><polygon fill="#181818" points="665.55,232.1583,668.4537,222.7472,664.9567,227.1936,660.5102,223.6966,665.55,232.1583" style="stroke:#181818;stroke-width:1;"/><text fill="#000000" font-family="sans-serif" font-size="13" lengthAdjust="spacing" textLength="85.3442" x="661.92" y="178.0266">Audit Evasion</text></g><!--link I to BS--><g class="link" data-entity-1="ent0006" data-entity-2="ent0013" data-link-type="dependency" data-source-line="38" id="lnk21"><path d="M499.12,132.7983 C487.8,141.4583 474.38,150.4383 460.92,156.4583 C445.57,163.3383 434.49,151.3683 423.92,164.4583 C408.45,183.6283 415.7092,206.384 427.2092,226.744" fill="none" id="I-to-BS" style="stroke:#181818;stroke-width:1;"/><polygon fill="#181818" points="430.16,231.9683,429.2166,222.1647,427.701,227.6148,422.2509,226.0991,430.16,231.9683" style="stroke:#181818;stroke-width:1;"/><text fill="#000000" font-family="sans-serif" font-size="13" lengthAdjust="spacing" textLength="84.5508" x="424.92" y="178.0266">Data Leakage</text></g><!--link I to BU--><g class="link" data-entity-1="ent0006" data-entity-2="ent0014" data-link-type="dependency" data-source-line="39" id="lnk22"><path d="M521.75,132.6583 C518.73,147.0883 516.6,165.3883 519.92,181.4583 C523.58,199.1683 528.8601,212.445 536.0401,226.895" fill="none" id="I-to-BU" style="stroke:#181818;stroke-width:1;"/><polygon fill="#181818" points="538.71,232.2683,538.2873,222.4285,536.4851,227.7906,531.123,225.9883,538.71,232.2683" style="stroke:#181818;stroke-width:1;"/><text fill="#000000" font-family="sans-serif" font-size="13" lengthAdjust="spacing" textLength="131.6187" x="520.92" y="178.0266">Master Key Exposure</text></g><!--link D to UM--><g class="link" data-entity-1="ent0007" data-entity-2="ent0011" data-link-type="dependency" data-source-line="40" id="lnk23"><path d="M1080.72,111.0583 C1166.72,120.4283 1355.96,145.4883 1320.92,181.4583 C1309.21,193.4883 1034.4,182.9683 1018.92,189.4583 C997.76,198.3383 983.1099,212.0514 970.3299,227.5314" fill="none" id="D-to-UM" style="stroke:#181818;stroke-width:1;"/><polygon fill="#181818" points="966.51,232.1583,975.3245,227.7645,969.6932,228.3025,969.1552,222.6713,966.51,232.1583" style="stroke:#181818;stroke-width:1;"/><text fill="#000000" font-family="sans-serif" font-size="13" lengthAdjust="spacing" textLength="71.2588" x="1326.18" y="178.0266">Brute Force</text></g><!--link D to WS--><g class="link" data-entity-1="ent0007" data-entity-2="ent0015" data-link-type="dependency" data-source-line="41" id="lnk24"><path d="M1080.9,109.5383 C1182.01,116.2683 1437.03,135.9483 1461.92,164.4583 C1507.27,216.4083 1247.0083,244.3282 1135.8983,253.8082" fill="none" id="D-to-WS" style="stroke:#181818;stroke-width:1;"/><polygon fill="#181818" points="1129.92,254.3183,1139.2275,257.5387,1134.9019,253.8932,1138.5474,249.5677,1129.92,254.3183" style="stroke:#181818;stroke-width:1;"/><text fill="#000000" font-family="sans-serif" font-size="13" lengthAdjust="spacing" textLength="130.6157" x="1468.07" y="178.0266">Connection Flooding</text></g><!--link E to PM--><g class="link" data-entity-1="ent0008" data-entity-2="ent0012" data-link-type="dependency" data-source-line="42" id="lnk25"><path d="M787.45,132.8183 C779.39,148.5683 767.3,168.1583 751.92,181.4583 C745.3,187.1883 741.07,184.4083 733.92,189.4583 C717.05,201.3783 704.9342,213.5938 693.0242,227.5538" fill="none" id="E-to-PM" style="stroke:#181818;stroke-width:1;"/><polygon fill="#181818" points="689.13,232.1183,698.0144,227.8676,692.3752,228.3145,691.9283,222.6753,689.13,232.1183" style="stroke:#181818;stroke-width:1;"/><text fill="#000000" font-family="sans-serif" font-size="13" lengthAdjust="spacing" textLength="115.7051" x="767.69" y="178.0266">Permission Bypass</text></g><!--link E to UM--><g class="link" data-entity-1="ent0008" data-entity-2="ent0011" data-link-type="dependency" data-source-line="43" id="lnk26"><path d="M829.52,132.9583 C840.49,141.3283 853.27,150.0783 865.92,156.4583 C876.71,161.9083 882.41,156.9983 891.92,164.4583 C914.26,181.9683 927.3018,205.5326 936.2218,226.6126" fill="none" id="E-to-UM" style="stroke:#181818;stroke-width:1;"/><polygon fill="#181818" points="938.56,232.1383,938.7365,222.291,936.6115,227.5336,931.369,225.4086,938.56,232.1383" style="stroke:#181818;stroke-width:1;"/><text fill="#000000" font-family="sans-serif" font-size="13" lengthAdjust="spacing" textLength="120.3325" x="909.67" y="178.0266">Privilege Escalation</text></g><?plantuml-src RPB1RgCm48RlFCKeFUS5UbYfB4H5RLPH3Cgb5zSCr1lZGRR9RhJgkzSs9Db2VFJ_pU_vn-EaKmYit1TP3YdMXZu6tTgEQbGArl2BjmGRmplyG-QO90Q5uxhrDQihZNe5_nBmvp-LzKIDrEqAk0K63qqZ_9bJ9UzwD1Ui35XTBx4zzaCjkPEa8xWFO72SWuLko7GHVDEPj4AH7Gp6eW8UXBXNbA6MN04rRvgXEKanybdWGyMSpnMUuXEnP6VaIIfinw9yJEgBFhyDwuMwdZHgTtzOQ6riUSirRx7pt3YtxPoiB9e5LYsm7PfEJfxiR1rs4Tmjm5JHkqSS6JubIDc2uU8uzD-CqceE7V2TaJZYsD61XVmCrkiVFWGymfGGdkLlx-O_V1Ah81QrJoBT6SeFR5nIHYLbNicuu-3JodvGSUGNiVBYs1TSToZPHsqNB9_ylZZ8JpoycXGpnrVaHv_tSX_Cjjo7C_22PyZ_zd5hakpMOce6Xx0X8oxNX-3saxJsCmZ9Dege3btajovktm3fkUVMJcAql2uEv5RmATuN?></g></svg>