<?plantuml 1.2026.1?><svg xmlns="http://www.w3.org/2000/svg" xmlns:xlink="http://www.w3.org/1999/xlink" contentStyleType="text/css" data-diagram-type="ACTIVITY" height="861px" preserveAspectRatio="none" style="width:1154px;height:861px;background:#FFFFFF;" version="1.1" viewBox="0 0 1154 861" width="1154px" zoomAndPan="magnify"><title>Eskalationspfad bei Sicherheitsvorf&#228;llen</title><defs/><g><g class="title" data-source-line="13"><text fill="#000000" font-family="sans-serif" font-size="14" font-weight="bold" lengthAdjust="spacing" textLength="289.7754" x="430.8286" y="33.5352">Eskalationspfad bei Sicherheitsvorf&#228;llen</text></g><rect fill="none" height="21.1992" style="stroke:none;stroke-width:1;" width="1121.4326" x="15" y="49.7852"/><ellipse cx="141.6025" cy="85.9844" fill="#222222" rx="10" ry="10" style="stroke:#222222;stroke-width:1;"/><rect fill="#F1F1F1" height="34.1328" rx="12.5" ry="12.5" style="stroke:#181818;stroke-width:0.5;" width="112.4082" x="85.3984" y="115.9844"/><text fill="#000000" font-family="sans-serif" font-size="12" lengthAdjust="spacing" textLength="92.4082" x="95.3984" y="137.5859">Vorfall entdeckt</text><rect fill="#F1F1F1" height="34.1328" rx="12.5" ry="12.5" style="stroke:#181818;stroke-width:0.5;" width="113.7969" x="84.7041" y="170.1172"/><text fill="#000000" font-family="sans-serif" font-size="12" lengthAdjust="spacing" textLength="93.7969" x="94.7041" y="191.7188">Erste Bewertung</text><polygon fill="#F1F1F1" points="105.2939,224.25,177.9111,224.25,189.9111,236.25,177.9111,248.25,105.2939,248.25,93.2939,236.25,105.2939,224.25" style="stroke:#181818;stroke-width:0.5;"/><text fill="#000000" font-family="sans-serif" font-size="11" lengthAdjust="spacing" textLength="72.6172" x="105.2939" y="240.4072">Schweregrad?</text><text fill="#000000" font-family="sans-serif" font-size="11" lengthAdjust="spacing" textLength="73.2939" x="20" y="233.9297">Kritisch/Hoch</text><text fill="#000000" font-family="sans-serif" font-size="11" lengthAdjust="spacing" textLength="74.8569" x="189.9111" y="233.9297">Mittel/Niedrig</text><polygon fill="#F1F1F1" points="141.6025,783.002,153.6025,795.002,141.6025,807.002,129.6025,795.002,141.6025,783.002" style="stroke:#181818;stroke-width:0.5;"/><line style="stroke:#000000;stroke-width:1.5;" x1="15" x2="15" y1="49.7852" y2="849.002"/><rect fill="#F1F1F1" height="34.1328" rx="12.5" ry="12.5" style="stroke:#181818;stroke-width:0.5;" width="168.7461" x="302.7681" y="268.25"/><text fill="#000000" font-family="sans-serif" font-size="12" lengthAdjust="spacing" textLength="148.7461" x="312.7681" y="289.8516">Security Lead informieren</text><rect fill="#F1F1F1" height="34.1328" rx="12.5" ry="12.5" style="stroke:#181818;stroke-width:0.5;" width="96.9688" x="338.6567" y="322.3828"/><text fill="#000000" font-family="sans-serif" font-size="12" lengthAdjust="spacing" textLength="76.9688" x="348.6567" y="343.9844">Detailanalyse</text><polygon fill="#F1F1F1" points="324.9976,376.5156,449.2847,376.5156,461.2847,388.5156,449.2847,400.5156,324.9976,400.5156,312.9976,388.5156,324.9976,376.5156" style="stroke:#181818;stroke-width:0.5;"/><text fill="#000000" font-family="sans-serif" font-size="11" lengthAdjust="spacing" textLength="9.4961" x="391.1411" y="411.1504">Ja</text><text fill="#000000" font-family="sans-serif" font-size="11" lengthAdjust="spacing" textLength="124.2871" x="324.9976" y="392.6729">Datenschutz betroffen?</text><polygon fill="#F1F1F1" points="387.1411,749.002,399.1411,761.002,387.1411,773.002,375.1411,761.002,387.1411,749.002" style="stroke:#181818;stroke-width:0.5;"/><line style="stroke:#000000;stroke-width:1.5;" x1="269.7681" x2="269.7681" y1="49.7852" y2="849.002"/><rect fill="#F1F1F1" height="34.1328" rx="12.5" ry="12.5" style="stroke:#181818;stroke-width:0.5;" width="209.7559" x="509.2847" y="424.9932"/><text fill="#000000" font-family="sans-serif" font-size="12" lengthAdjust="spacing" textLength="189.7559" x="519.2847" y="446.5947">CISO + Datenschutzbeauftragter</text><rect fill="#F1F1F1" height="34.1328" rx="12.5" ry="12.5" style="stroke:#181818;stroke-width:0.5;" width="133.9648" x="547.1802" y="479.126"/><text fill="#000000" font-family="sans-serif" font-size="12" lengthAdjust="spacing" textLength="113.9648" x="557.1802" y="500.7275">Meldepflicht pr&#252;fen</text><polygon fill="#F1F1F1" points="578.9739,533.2588,649.3513,533.2588,661.3513,545.2588,649.3513,557.2588,578.9739,557.2588,566.9739,545.2588,578.9739,533.2588" style="stroke:#181818;stroke-width:0.5;"/><text fill="#000000" font-family="sans-serif" font-size="11" lengthAdjust="spacing" textLength="9.4961" x="618.1626" y="567.8936">Ja</text><text fill="#000000" font-family="sans-serif" font-size="11" lengthAdjust="spacing" textLength="70.3774" x="578.9739" y="549.416">Meldepflicht?</text><polygon fill="#F1F1F1" points="614.1626,705.002,626.1626,717.002,614.1626,729.002,602.1626,717.002,614.1626,705.002" style="stroke:#181818;stroke-width:0.5;"/><line style="stroke:#000000;stroke-width:1.5;" x1="476.2847" x2="476.2847" y1="49.7852" y2="849.002"/><rect fill="#F1F1F1" height="34.1328" rx="12.5" ry="12.5" style="stroke:#181818;stroke-width:0.5;" width="233.5801" x="729.0405" y="581.7363"/><text fill="#000000" font-family="sans-serif" font-size="12" lengthAdjust="spacing" textLength="213.5801" x="739.0405" y="603.3379">Gesch&#228;ftsf&#252;hrung + Rechtsabteilung</text><rect fill="#F1F1F1" height="34.1328" rx="12.5" ry="12.5" style="stroke:#181818;stroke-width:0.5;" width="168.9688" x="761.3462" y="650.8691"/><text fill="#000000" font-family="sans-serif" font-size="12" lengthAdjust="spacing" textLength="148.9688" x="771.3462" y="672.4707">Aufsichtsbeh&#246;rde melden</text><rect fill="#F1F1F1" height="34.1328" rx="12.5" ry="12.5" style="stroke:#181818;stroke-width:0.5;" width="109.1445" x="1006.6689" y="268.25"/><text fill="#000000" font-family="sans-serif" font-size="12" lengthAdjust="spacing" textLength="89.1445" x="1016.6689" y="289.8516">Ticket erstellen</text><rect fill="#F1F1F1" height="34.1328" rx="12.5" ry="12.5" style="stroke:#181818;stroke-width:0.5;" width="138.6875" x="991.8975" y="322.3828"/><text fill="#000000" font-family="sans-serif" font-size="12" lengthAdjust="spacing" textLength="118.6875" x="1001.8975" y="343.9844">Im Sprint bearbeiten</text><ellipse cx="970.8975" cy="838.002" fill="none" rx="11" ry="11" style="stroke:#222222;stroke-width:1;"/><ellipse cx="970.8975" cy="838.002" fill="#222222" rx="6" ry="6" style="stroke:#222222;stroke-width:1;"/><line style="stroke:#000000;stroke-width:1.5;" x1="723.0405" x2="723.0405" y1="49.7852" y2="849.002"/><line style="stroke:#000000;stroke-width:1.5;" x1="1134.585" x2="1134.585" y1="49.7852" y2="849.002"/><line style="stroke:#181818;stroke-width:1;" x1="141.6025" x2="141.6025" y1="95.9844" y2="115.9844"/><polygon fill="#181818" points="137.6025,105.9844,141.6025,115.9844,145.6025,105.9844,141.6025,109.9844" style="stroke:#181818;stroke-width:1;"/><line style="stroke:#181818;stroke-width:1;" x1="141.6025" x2="141.6025" y1="150.1172" y2="170.1172"/><polygon fill="#181818" points="137.6025,160.1172,141.6025,170.1172,145.6025,160.1172,141.6025,164.1172" style="stroke:#181818;stroke-width:1;"/><line style="stroke:#181818;stroke-width:1;" x1="141.6025" x2="141.6025" y1="204.25" y2="224.25"/><polygon fill="#181818" points="137.6025,214.25,141.6025,224.25,145.6025,214.25,141.6025,218.25" style="stroke:#181818;stroke-width:1;"/><line style="stroke:#181818;stroke-width:1;" x1="387.1411" x2="387.1411" y1="302.3828" y2="322.3828"/><polygon fill="#181818" points="383.1411,312.3828,387.1411,322.3828,391.1411,312.3828,387.1411,316.3828" style="stroke:#181818;stroke-width:1;"/><line style="stroke:#181818;stroke-width:1;" x1="312.9976" x2="288.7681" y1="388.5156" y2="388.5156"/><polygon fill="#181818" points="284.7681,554.2363,288.7681,564.2363,292.7681,554.2363,288.7681,558.2363" style="stroke:#181818;stroke-width:1;"/><line style="stroke:#181818;stroke-width:1;" x1="288.7681" x2="288.7681" y1="388.5156" y2="761.002"/><line style="stroke:#181818;stroke-width:1;" x1="288.7681" x2="375.1411" y1="761.002" y2="761.002"/><polygon fill="#181818" points="365.1411,757.002,375.1411,761.002,365.1411,765.002,369.1411,761.002" style="stroke:#181818;stroke-width:1;"/><line style="stroke:#181818;stroke-width:1;" x1="387.1411" x2="387.1411" y1="356.5156" y2="376.5156"/><polygon fill="#181818" points="383.1411,366.5156,387.1411,376.5156,391.1411,366.5156,387.1411,370.5156" style="stroke:#181818;stroke-width:1;"/><line style="stroke:#181818;stroke-width:1;" x1="614.1626" x2="614.1626" y1="459.126" y2="479.126"/><polygon fill="#181818" points="610.1626,469.126,614.1626,479.126,618.1626,469.126,614.1626,473.126" style="stroke:#181818;stroke-width:1;"/><line style="stroke:#181818;stroke-width:1;" x1="566.9739" x2="495.2847" y1="545.2588" y2="545.2588"/><polygon fill="#181818" points="491.2847,623.3691,495.2847,633.3691,499.2847,623.3691,495.2847,627.3691" style="stroke:#181818;stroke-width:1;"/><line style="stroke:#181818;stroke-width:1;" x1="495.2847" x2="495.2847" y1="545.2588" y2="717.002"/><line style="stroke:#181818;stroke-width:1;" x1="495.2847" x2="602.1626" y1="717.002" y2="717.002"/><polygon fill="#181818" points="592.1626,713.002,602.1626,717.002,592.1626,721.002,596.1626,717.002" style="stroke:#181818;stroke-width:1;"/><line style="stroke:#181818;stroke-width:1;" x1="614.1626" x2="614.1626" y1="513.2588" y2="533.2588"/><polygon fill="#181818" points="610.1626,523.2588,614.1626,533.2588,618.1626,523.2588,614.1626,527.2588" style="stroke:#181818;stroke-width:1;"/><line style="stroke:#181818;stroke-width:1;" x1="845.8306" x2="845.8306" y1="615.8691" y2="650.8691"/><polygon fill="#181818" points="841.8306,640.8691,845.8306,650.8691,849.8306,640.8691,845.8306,644.8691" style="stroke:#181818;stroke-width:1;"/><line style="stroke:#181818;stroke-width:1;" x1="1061.2412" x2="1061.2412" y1="302.3828" y2="322.3828"/><polygon fill="#181818" points="1057.2412,312.3828,1061.2412,322.3828,1065.2412,312.3828,1061.2412,316.3828" style="stroke:#181818;stroke-width:1;"/><line style="stroke:#181818;stroke-width:1;" x1="614.1626" x2="614.1626" y1="557.2588" y2="569.4976"/><line style="stroke:#181818;stroke-width:1;" x1="614.1626" x2="845.8306" y1="569.4976" y2="569.4976"/><line style="stroke:#181818;stroke-width:1;" x1="845.8306" x2="845.8306" y1="569.4976" y2="581.7363"/><polygon fill="#181818" points="841.8306,571.7363,845.8306,581.7363,849.8306,571.7363,845.8306,575.7363" style="stroke:#181818;stroke-width:1;"/><line style="stroke:#181818;stroke-width:1;" x1="845.8306" x2="845.8306" y1="685.002" y2="692.7632"/><line style="stroke:#181818;stroke-width:1;" x1="845.8306" x2="614.1626" y1="692.7632" y2="692.7632"/><line style="stroke:#181818;stroke-width:1;" x1="614.1626" x2="614.1626" y1="692.7632" y2="705.002"/><polygon fill="#181818" points="610.1626,695.002,614.1626,705.002,618.1626,695.002,614.1626,699.002" style="stroke:#181818;stroke-width:1;"/><line style="stroke:#181818;stroke-width:1;" x1="387.1411" x2="387.1411" y1="400.5156" y2="412.7544"/><line style="stroke:#181818;stroke-width:1;" x1="387.1411" x2="614.1626" y1="412.7544" y2="412.7544"/><line style="stroke:#181818;stroke-width:1;" x1="614.1626" x2="614.1626" y1="412.7544" y2="424.9932"/><polygon fill="#181818" points="610.1626,414.9932,614.1626,424.9932,618.1626,414.9932,614.1626,418.9932" style="stroke:#181818;stroke-width:1;"/><line style="stroke:#181818;stroke-width:1;" x1="614.1626" x2="614.1626" y1="729.002" y2="736.7632"/><line style="stroke:#181818;stroke-width:1;" x1="614.1626" x2="387.1411" y1="736.7632" y2="736.7632"/><line style="stroke:#181818;stroke-width:1;" x1="387.1411" x2="387.1411" y1="736.7632" y2="749.002"/><polygon fill="#181818" points="383.1411,739.002,387.1411,749.002,391.1411,739.002,387.1411,743.002" style="stroke:#181818;stroke-width:1;"/><line style="stroke:#181818;stroke-width:1;" x1="93.2939" x2="81.2939" y1="236.25" y2="236.25"/><line style="stroke:#181818;stroke-width:1;" x1="81.2939" x2="81.2939" y1="236.25" y2="254.25"/><line style="stroke:#181818;stroke-width:1;" x1="81.2939" x2="387.1411" y1="254.25" y2="254.25"/><line style="stroke:#181818;stroke-width:1;" x1="387.1411" x2="387.1411" y1="254.25" y2="268.25"/><polygon fill="#181818" points="383.1411,258.25,387.1411,268.25,391.1411,258.25,387.1411,262.25" style="stroke:#181818;stroke-width:1;"/><line style="stroke:#181818;stroke-width:1;" x1="189.9111" x2="1061.2412" y1="236.25" y2="236.25"/><line style="stroke:#181818;stroke-width:1;" x1="1061.2412" x2="1061.2412" y1="236.25" y2="268.25"/><polygon fill="#181818" points="1057.2412,258.25,1061.2412,268.25,1065.2412,258.25,1061.2412,262.25" style="stroke:#181818;stroke-width:1;"/><line style="stroke:#181818;stroke-width:1;" x1="387.1411" x2="387.1411" y1="773.002" y2="777.002"/><line style="stroke:#181818;stroke-width:1;" x1="387.1411" x2="111.6025" y1="777.002" y2="777.002"/><line style="stroke:#181818;stroke-width:1;" x1="111.6025" x2="111.6025" y1="777.002" y2="795.002"/><line style="stroke:#181818;stroke-width:1;" x1="111.6025" x2="129.6025" y1="795.002" y2="795.002"/><polygon fill="#181818" points="119.6025,791.002,129.6025,795.002,119.6025,799.002,123.6025,795.002" style="stroke:#181818;stroke-width:1;"/><line style="stroke:#181818;stroke-width:1;" x1="1061.2412" x2="1061.2412" y1="356.5156" y2="795.002"/><line style="stroke:#181818;stroke-width:1;" x1="1061.2412" x2="153.6025" y1="795.002" y2="795.002"/><polygon fill="#181818" points="163.6025,791.002,153.6025,795.002,163.6025,799.002,159.6025,795.002" style="stroke:#181818;stroke-width:1;"/><line style="stroke:#181818;stroke-width:1;" x1="141.6025" x2="141.6025" y1="807.002" y2="812.002"/><line style="stroke:#181818;stroke-width:1;" x1="141.6025" x2="970.8975" y1="812.002" y2="812.002"/><line style="stroke:#181818;stroke-width:1;" x1="970.8975" x2="970.8975" y1="812.002" y2="827.002"/><polygon fill="#181818" points="966.8975,817.002,970.8975,827.002,974.8975,817.002,970.8975,821.002" style="stroke:#181818;stroke-width:1;"/><text fill="#000000" font-family="sans-serif" font-size="18" lengthAdjust="spacing" textLength="131.8535" x="76.4573" y="67.1875">L1 - Entwickler</text><text fill="#000000" font-family="sans-serif" font-size="18" lengthAdjust="spacing" textLength="158.1943" x="293.9292" y="67.1875">L2 - Security Lead</text><text fill="#000000" font-family="sans-serif" font-size="18" lengthAdjust="spacing" textLength="127.0723" x="536.1265" y="67.1875">L3 - CISO/DSB</text><text fill="#000000" font-family="sans-serif" font-size="18" lengthAdjust="spacing" textLength="210.7617" x="823.4319" y="67.1875">L4 - Management/Legal</text><?plantuml-src PPB1RjD048RlVeevja8eAlJa753RHD2IWeGhxXlxNtkKpTgQ7LCL-N7w39nwyuincmHKn6cryu_c-_UVLTO0MgUT2qwvZsdmhg4jc2gkEqW7rlIZ5py_Xu1O5DFcWjxIEkeZrxi0cOgaJhGelrkJ2u4GjK6zqsLHhYKfw1gF41rZkopOqrbLTtP7AwxvS4xQ8TBPPs7bL7UBJttTdHT4q-QTKIhKeobFj85h9YkN_rI8e-zbppOjBhEwWZeEBhhmb90hcRToYcYpH_rfxrBflKVyIxvp6PU1xmruSrjzNQogw-bGA_ELtj2h2LkuqQkuLY7BOzCzGeF11ujBQP3vnH_T7EclrV-W6Njfs7kpt69loIqsQ5sOJchv4OQTdxqcFxzqOXcQdM-mMSbj5HmEgPwQhqQVCYPjqSs_f07jC_na1h5XN_mv4HBC7AiYBBum6k4sUoeVRAjGGjvSNlWXrzizLODmL0lGYNqEpS9nKj9-A7u3?></g></svg>