<?plantuml 1.2026.1?><svg xmlns="http://www.w3.org/2000/svg" xmlns:xlink="http://www.w3.org/1999/xlink" contentStyleType="text/css" data-diagram-type="CLASS" height="655px" preserveAspectRatio="none" style="width:272px;height:655px;background:#FFFFFF;" version="1.1" viewBox="0 0 272 655" width="272px" zoomAndPan="magnify"><title>RBAC-Modell</title><defs/><g><g class="title" data-source-line="298"><text fill="#000000" font-family="sans-serif" font-size="14" font-weight="bold" lengthAdjust="spacing" textLength="95.9355" x="81.4866" y="23.5352">RBAC-Modell</text></g><!--class User--><g class="entity" data-qualified-name="User" data-source-line="300" id="ent0002"><rect fill="#F1F1F1" height="97.4648" rx="2.5" ry="2.5" style="stroke:#181818;stroke-width:0.5;" width="149.5117" x="54.05" y="44.4883"/><ellipse cx="109.3732" cy="60.4883" fill="#ADD1B2" rx="11" ry="11" style="stroke:#181818;stroke-width:1;"/><path d="M111.8464,66.6313 Q111.2653,66.9302 110.6262,67.0796 Q109.987,67.229 109.2814,67.229 Q106.7746,67.229 105.4548,65.5771 Q104.135,63.9253 104.135,60.8042 Q104.135,57.6748 105.4548,56.0229 Q106.7746,54.3711 109.2814,54.3711 Q109.987,54.3711 110.6345,54.5205 Q111.2819,54.6699 111.8464,54.9688 L111.8464,57.6914 Q111.2155,57.1104 110.622,56.8406 Q110.0285,56.5708 109.3977,56.5708 Q108.0529,56.5708 107.3681,57.6375 Q106.6833,58.7041 106.6833,60.8042 Q106.6833,62.896 107.3681,63.9626 Q108.0529,65.0293 109.3977,65.0293 Q110.0285,65.0293 110.622,64.7595 Q111.2155,64.4897 111.8464,63.9087 Z " fill="#000000"/><text fill="#000000" font-family="sans-serif" font-size="14" lengthAdjust="spacing" textLength="30.3652" x="129.8732" y="65.7793">User</text><line style="stroke:#181818;stroke-width:0.5;" x1="55.05" x2="202.5617" y1="76.4883" y2="76.4883"/><g data-visibility-modifier="PUBLIC_FIELD"><ellipse cx="65.05" cy="90.2324" fill="none" rx="3" ry="3" style="stroke:#038048;stroke-width:1;"/></g><text fill="#000000" font-family="sans-serif" font-size="14" lengthAdjust="spacing" textLength="62.9453" x="74.05" y="94.0234">ID: string</text><g data-visibility-modifier="PUBLIC_FIELD"><ellipse cx="65.05" cy="106.7207" fill="none" rx="3" ry="3" style="stroke:#038048;stroke-width:1;"/></g><text fill="#000000" font-family="sans-serif" font-size="14" lengthAdjust="spacing" textLength="98.2188" x="74.05" y="110.5117">Roles: []RoleID</text><g data-visibility-modifier="PUBLIC_FIELD"><ellipse cx="65.05" cy="123.209" fill="none" rx="3" ry="3" style="stroke:#038048;stroke-width:1;"/></g><text fill="#000000" font-family="sans-serif" font-size="14" lengthAdjust="spacing" textLength="123.5117" x="74.05" y="127">Groups: []GroupID</text><line style="stroke:#181818;stroke-width:0.5;" x1="55.05" x2="202.5617" y1="133.9531" y2="133.9531"/></g><!--class Role--><g class="entity" data-qualified-name="Role" data-source-line="306" id="ent0003"><rect fill="#F1F1F1" height="97.4648" rx="2.5" ry="2.5" style="stroke:#181818;stroke-width:0.5;" width="213.6055" x="7" y="393.4183"/><ellipse cx="94.9033" cy="409.4183" fill="#ADD1B2" rx="11" ry="11" style="stroke:#181818;stroke-width:1;"/><path d="M97.3765,415.5613 Q96.7954,415.8602 96.1563,416.0096 Q95.5171,416.159 94.8115,416.159 Q92.3047,416.159 90.9849,414.5071 Q89.665,412.8553 89.665,409.7342 Q89.665,406.6048 90.9849,404.9529 Q92.3047,403.3011 94.8115,403.3011 Q95.5171,403.3011 96.1646,403.4505 Q96.812,403.5999 97.3765,403.8988 L97.3765,406.6214 Q96.7456,406.0404 96.1521,405.7706 Q95.5586,405.5008 94.9277,405.5008 Q93.583,405.5008 92.8982,406.5675 Q92.2134,407.6341 92.2134,409.7342 Q92.2134,411.826 92.8982,412.8926 Q93.583,413.9593 94.9277,413.9593 Q95.5586,413.9593 96.1521,413.6895 Q96.7456,413.4197 97.3765,412.8387 Z " fill="#000000"/><text fill="#000000" font-family="sans-serif" font-size="14" lengthAdjust="spacing" textLength="29.2988" x="115.4033" y="414.7093">Role</text><line style="stroke:#181818;stroke-width:0.5;" x1="8" x2="219.6055" y1="425.4183" y2="425.4183"/><g data-visibility-modifier="PUBLIC_FIELD"><ellipse cx="18" cy="439.1624" fill="none" rx="3" ry="3" style="stroke:#038048;stroke-width:1;"/></g><text fill="#000000" font-family="sans-serif" font-size="14" lengthAdjust="spacing" textLength="62.9453" x="27" y="442.9534">ID: string</text><g data-visibility-modifier="PUBLIC_FIELD"><ellipse cx="18" cy="455.6507" fill="none" rx="3" ry="3" style="stroke:#038048;stroke-width:1;"/></g><text fill="#000000" font-family="sans-serif" font-size="14" lengthAdjust="spacing" textLength="87.3701" x="27" y="459.4417">Name: string</text><g data-visibility-modifier="PUBLIC_FIELD"><ellipse cx="18" cy="472.139" fill="none" rx="3" ry="3" style="stroke:#038048;stroke-width:1;"/></g><text fill="#000000" font-family="sans-serif" font-size="14" lengthAdjust="spacing" textLength="187.6055" x="27" y="475.93">Permissions: []PermissionID</text><line style="stroke:#181818;stroke-width:0.5;" x1="8" x2="219.6055" y1="482.8831" y2="482.8831"/></g><!--class Permission--><g class="entity" data-qualified-name="Permission" data-source-line="312" id="ent0004"><rect fill="#F1F1F1" height="80.9766" rx="2.5" ry="2.5" style="stroke:#181818;stroke-width:0.5;" width="152.1777" x="37.71" y="567.8783"/><ellipse cx="73.4935" cy="583.8783" fill="#ADD1B2" rx="11" ry="11" style="stroke:#181818;stroke-width:1;"/><path d="M75.9666,590.0213 Q75.3856,590.3202 74.7464,590.4696 Q74.1073,590.619 73.4017,590.619 Q70.8949,590.619 69.575,588.9671 Q68.2552,587.3153 68.2552,584.1942 Q68.2552,581.0648 69.575,579.4129 Q70.8949,577.7611 73.4017,577.7611 Q74.1073,577.7611 74.7547,577.9105 Q75.4022,578.0599 75.9666,578.3588 L75.9666,581.0814 Q75.3358,580.5004 74.7423,580.2306 Q74.1488,579.9608 73.5179,579.9608 Q72.1732,579.9608 71.4884,581.0275 Q70.8036,582.0941 70.8036,584.1942 Q70.8036,586.286 71.4884,587.3526 Q72.1732,588.4193 73.5179,588.4193 Q74.1488,588.4193 74.7423,588.1495 Q75.3358,587.8797 75.9666,587.2987 Z " fill="#000000"/><text fill="#000000" font-family="sans-serif" font-size="14" lengthAdjust="spacing" textLength="73.9922" x="92.1121" y="589.1693">Permission</text><line style="stroke:#181818;stroke-width:0.5;" x1="38.71" x2="188.8877" y1="599.8783" y2="599.8783"/><g data-visibility-modifier="PUBLIC_FIELD"><ellipse cx="48.71" cy="613.6224" fill="none" rx="3" ry="3" style="stroke:#038048;stroke-width:1;"/></g><text fill="#000000" font-family="sans-serif" font-size="14" lengthAdjust="spacing" textLength="62.9453" x="57.71" y="617.4134">ID: string</text><g data-visibility-modifier="PUBLIC_FIELD"><ellipse cx="48.71" cy="630.1107" fill="none" rx="3" ry="3" style="stroke:#038048;stroke-width:1;"/></g><text fill="#000000" font-family="sans-serif" font-size="14" lengthAdjust="spacing" textLength="126.1777" x="57.71" y="633.9017">Description: string</text><line style="stroke:#181818;stroke-width:0.5;" x1="38.71" x2="188.8877" y1="640.8548" y2="640.8548"/></g><!--class Group--><g class="entity" data-qualified-name="Group" data-source-line="317" id="ent0005"><rect fill="#F1F1F1" height="97.4648" rx="2.5" ry="2.5" style="stroke:#181818;stroke-width:0.5;" width="124.2188" x="141.69" y="218.9483"/><ellipse cx="179.313" cy="234.9483" fill="#ADD1B2" rx="11" ry="11" style="stroke:#181818;stroke-width:1;"/><path d="M181.7862,241.0913 Q181.2051,241.3902 180.566,241.5396 Q179.9268,241.689 179.2213,241.689 Q176.7144,241.689 175.3946,240.0371 Q174.0748,238.3853 174.0748,235.2642 Q174.0748,232.1348 175.3946,230.4829 Q176.7144,228.8311 179.2213,228.8311 Q179.9268,228.8311 180.5743,228.9805 Q181.2217,229.1299 181.7862,229.4287 L181.7862,232.1514 Q181.1553,231.5704 180.5618,231.3006 Q179.9683,231.0308 179.3375,231.0308 Q177.9927,231.0308 177.3079,232.0975 Q176.6231,233.1641 176.6231,235.2642 Q176.6231,237.356 177.3079,238.4226 Q177.9927,239.4893 179.3375,239.4893 Q179.9683,239.4893 180.5618,239.2195 Q181.1553,238.9497 181.7862,238.3687 Z " fill="#000000"/><text fill="#000000" font-family="sans-serif" font-size="14" lengthAdjust="spacing" textLength="41.9453" x="198.3404" y="240.2393">Group</text><line style="stroke:#181818;stroke-width:0.5;" x1="142.69" x2="264.9088" y1="250.9483" y2="250.9483"/><g data-visibility-modifier="PUBLIC_FIELD"><ellipse cx="152.69" cy="264.6924" fill="none" rx="3" ry="3" style="stroke:#038048;stroke-width:1;"/></g><text fill="#000000" font-family="sans-serif" font-size="14" lengthAdjust="spacing" textLength="62.9453" x="161.69" y="268.4834">ID: string</text><g data-visibility-modifier="PUBLIC_FIELD"><ellipse cx="152.69" cy="281.1807" fill="none" rx="3" ry="3" style="stroke:#038048;stroke-width:1;"/></g><text fill="#000000" font-family="sans-serif" font-size="14" lengthAdjust="spacing" textLength="87.3701" x="161.69" y="284.9717">Name: string</text><g data-visibility-modifier="PUBLIC_FIELD"><ellipse cx="152.69" cy="297.669" fill="none" rx="3" ry="3" style="stroke:#038048;stroke-width:1;"/></g><text fill="#000000" font-family="sans-serif" font-size="14" lengthAdjust="spacing" textLength="98.2188" x="161.69" y="301.46">Roles: []RoleID</text><line style="stroke:#181818;stroke-width:0.5;" x1="142.69" x2="264.9088" y1="308.4131" y2="308.4131"/></g><!--link User to Role--><g class="link" data-entity-1="ent0002" data-entity-2="ent0003" data-link-type="association" data-source-line="323" id="lnk6"><path codeLine="323" d="M115.86,142.3983 C110.34,165.3883 104.54,193.3983 101.8,218.9483 C95.41,278.6883 101.21,347.8383 106.75,392.9183" fill="none" id="User-Role" style="stroke:#181818;stroke-width:1;"/><text fill="#000000" font-family="sans-serif" font-size="13" lengthAdjust="spacing" textLength="20.1094" x="102.8" y="272.7566">hat</text><text fill="#000000" font-family="sans-serif" font-size="13" lengthAdjust="spacing" textLength="8.2202" x="105.5977" y="162.6036">1</text><text fill="#000000" font-family="sans-serif" font-size="13" lengthAdjust="spacing" textLength="6.2651" x="99.355" y="382.5305">*</text></g><!--link User to Group--><g class="link" data-entity-1="ent0002" data-entity-2="ent0005" data-link-type="association" data-source-line="324" id="lnk7"><path codeLine="324" d="M149.69,142.2583 C160.05,166.0783 172.53,194.7783 182.89,218.5983" fill="none" id="User-Group" style="stroke:#181818;stroke-width:1;"/><text fill="#000000" font-family="sans-serif" font-size="13" lengthAdjust="spacing" textLength="77.7588" x="169.55" y="185.5166">Mitglied von</text><text fill="#000000" font-family="sans-serif" font-size="13" lengthAdjust="spacing" textLength="8.2202" x="143.9736" y="162.4447">1</text><text fill="#000000" font-family="sans-serif" font-size="13" lengthAdjust="spacing" textLength="6.2651" x="173.5464" y="208.2316">*</text></g><!--link Group to Role--><g class="link" data-entity-1="ent0005" data-entity-2="ent0003" data-link-type="association" data-source-line="325" id="lnk8"><path codeLine="325" d="M178.73,316.7283 C166.3,340.5483 151.33,369.2383 138.89,393.0683" fill="none" id="Group-Role" style="stroke:#181818;stroke-width:1;"/><text fill="#000000" font-family="sans-serif" font-size="13" lengthAdjust="spacing" textLength="50.7939" x="162.5" y="359.9866">gew&#228;hrt</text><text fill="#000000" font-family="sans-serif" font-size="13" lengthAdjust="spacing" textLength="8.2202" x="166.8386" y="336.9161">1</text><text fill="#000000" font-family="sans-serif" font-size="13" lengthAdjust="spacing" textLength="6.2651" x="136.0147" y="382.7016">*</text></g><!--link Role to Permission--><g class="link" data-entity-1="ent0003" data-entity-2="ent0004" data-link-type="association" data-source-line="326" id="lnk9"><path codeLine="326" d="M113.8,491.0883 C113.8,515.3283 113.8,544.3983 113.8,567.4083" fill="none" id="Role-Permission" style="stroke:#181818;stroke-width:1;"/><text fill="#000000" font-family="sans-serif" font-size="13" lengthAdjust="spacing" textLength="44.04" x="114.8" y="534.4466">enth&#228;lt</text><text fill="#000000" font-family="sans-serif" font-size="13" lengthAdjust="spacing" textLength="8.2202" x="105.2526" y="511.615">1</text><text fill="#000000" font-family="sans-serif" font-size="13" lengthAdjust="spacing" textLength="6.2651" x="107.3432" y="557.2783">*</text></g><?plantuml-src ZP2n3e8m48RtFiM5KSFWsaqbCGmOG-9a70XSe4cXf3rrCBuDRyAB2Mq4b93OwUx_hr_lBmcI2F5kk_SZbQ6KZAKoCGRE1ZKy6NHd7GOS36bHvQwFbKJ3uNBjYp1mua6hMsrLMtNowyFgnvPOnwJ4R-M4kXJ625LPsjXEaQEw10xGf5hKr8qCnd3ThlZ_Ih-1Euxz7s_ZWU-3j_9SHWv5GZFBFSOX4fHBWHdSLSMSE0Va-6YRGXEp_SIV9EQ05HLj8ucz0G00?></g></svg>