<?xml version="1.0" encoding="utf-8"?>
<!-- Generator: $$$/GeneralStr/196=Adobe Illustrator 27.6.0, SVG Export Plug-In . SVG Version: 6.00 Build 0)  -->
<svg version="1.1" id="Ebene_1" xmlns="http://www.w3.org/2000/svg" xmlns:xlink="http://www.w3.org/1999/xlink" x="0px" y="0px"
	 viewBox="0 0 728 278.4678" enable-background="new 0 0 728 278.4678" xml:space="preserve">
<path id="Vereinigungsmenge_8" fill="#1A1A1B" d="M646.4209,278.4639l0.4941-90.1914h-76.373l-43.2002,90.1914H409.542
	l-42.395-90.4912h-28.2998v90.4912h-81.6831v-65.8643c-25.3052,40.9561-70.021,65.8809-118.1641,65.8643
	c-76.7632,0-139-62.3242-139-139.2266S62.2388,0,139,0c48.144-0.0107,92.8579,24.917,118.1621,65.875V0h125.228
	c24.3965,0,44.7549,3.7354,61.0762,11.207c16.3018,7.457,28.5942,18.2275,36.877,32.3105
	c8.2949,14.0977,12.438,31.1152,12.4312,51.0537v0.3867c0.0645,16.0674-3.9062,31.8945-11.5469,46.0293
	c-7.3062,13.9434-18.9341,25.1445-33.1411,31.9248l19.6001,39.2002L573.8618,0h153.7383L728,278.4678L646.4209,278.4639z
	 M338.8467,131.043h34.1001c11.167,0,20.0576-3.2178,26.6709-9.6533s9.9209-14.9258,9.9229-25.4707v-0.3857
	c0-10.3047-3.3076-18.7324-9.9229-25.2832s-15.5059-9.8311-26.6709-9.8398h-34.1001V131.043z M647.2295,130.5781l0.3828-69.8389
	h-15.9868l-33.4448,69.8389H647.2295z"/>
</svg>
