<svg xmlns="http://www.w3.org/2000/svg" viewBox="0 0 24 24">
    <path fill="currentColor" d="M21.993,6.75a.5.5,0,0,0,.407-.791L18.8.919A1,1,0,0,0,17.985.5H12.75a.5.5,0,0,0-.5.5V6.25a.5.5,0,0,0,.5.5Z"/>
    <path fill="currentColor" d="M1,8.25a.5.5,0,0,0-.5.5V22.5a1,1,0,0,0,1,1h21a1,1,0,0,0,1-1V8.75a.5.5,0,0,0-.5-.5ZM12.5,18a.5.5,0,0,1,.5-.5h7a.5.5,0,0,1,.5.5v2a.5.5,0,0,1-.5.5H13a.5.5,0,0,1-.5-.5Z"/>
    <path fill="currentColor" d="M10.75,1a.5.5,0,0,0-.5-.5H6.015A1,1,0,0,0,5.2.919L1.6,5.959a.5.5,0,0,0,.407.791H10.25a.5.5,0,0,0,.5-.5Z"/>
</svg>