<svg style="width:3rem;height:3rem" width="83" height="45" viewBox="0 0 83 45" fill="none"
     xmlns="http://www.w3.org/2000/svg">
    <path d="M62.2335 7.91057C59.7108 5.33924 56.4129 3.7257 53.0389 2.56453C48.2604 0.919998 44.4084 -0.274904 39.2366 0.0549694C29.5203 0.674704 19.5471 5.5985 15.9518 15.1001C14.9742 17.6834 14.8547 20.2712 14.1647 22.8478C13.2473 26.2737 9.69117 28.2044 6.95625 30.1323C4.90239 31.58 1.52892 33.2909 0.494919 35.6848C-1.6142 40.5678 3.46521 42.3791 7.29983 42.8688C10.958 43.3359 15.9164 43.4598 19.6026 43.2553C23.4373 43.0426 27.3934 41.8726 31.235 42.0079C37.7666 42.2378 44.0272 45.2504 50.5858 44.8713C53.9724 44.6756 56.5696 43.5316 59.7129 42.6519C64.5986 41.2847 68.901 43.6484 73.8556 43.3507C76.9886 43.1624 81.7733 41.7575 82.8357 38.4099C83.6393 35.8774 81.3284 32.6248 79.5262 30.9978C76.2199 28.0126 70.5852 26.3572 68.9655 22.0121C67.0409 16.8488 66.3107 12.0664 62.2335 7.91057Z"
          fill="#FF4A4A"></path>
    <path d="M27.3388 22.0846C24.1769 22.6214 24.2149 27.6328 27.4901 28.0615C32.4444 28.7101 32.4055 21.2245 27.3388 22.0846ZM55.5469 22.0823C54.7681 22.245 53.8457 23.0902 53.5352 23.8094C52.2574 26.769 55.5678 29.2591 58.0874 27.6258C61.024 25.7222 59.0619 21.3477 55.5469 22.0823Z"
          fill="black"></path>
    <path d="M47.8241 29.6975C48.4092 30.4704 48.1241 31.6475 47.1856 31.8559C46.0888 32.0995 45.8827 31.3542 45.1196 30.9676C43.7609 30.2793 41.8352 30.1693 40.3844 30.5924C39.2995 30.9087 37.3126 32.9252 36.5168 31.1791C35.8325 29.6781 38.157 28.4854 39.3199 28.1134C41.6881 27.3558 46.2004 27.5528 47.8241 29.6975Z"
          fill="black"></path>
</svg>