<svg xmlns="http://www.w3.org/2000/svg" viewBox="0 0 512 256" width="512"
     height="256">
    <path d="M 54.535,113.484 C 54.110,106.243 53.975,106.256 53.414,99.027" stroke-width="4.885" stroke="currentColor"
          fill="none" stroke-linecap="round"></path>
    <path d="M 53.414,99.027 C 52.375,90.175 52.559,90.157 51.434,81.313" stroke-width="3.161" stroke="currentColor"
          fill="none" stroke-linecap="round"></path>
    <path d="M 51.434,81.313 C 49.436,65.186 49.719,65.167 48.102,49.012" stroke-width="2.188" stroke="currentColor"
          fill="none" stroke-linecap="round"></path>
    <path d="M 48.102,49.012 C 47.655,41.302 47.467,41.322 47.496,33.586" stroke-width="2.670" stroke="currentColor"
          fill="none" stroke-linecap="round"></path>
    <path d="M 47.496,33.586 C 45.208,24.152 47.353,26.640 47.496,19.688" stroke-width="2.954" stroke="currentColor"
          fill="none" stroke-linecap="round"></path>
    <path d="M 47.496,19.688 C 50.906,20.060 48.624,17.486 54.328,20.254" stroke-width="4.243" stroke="currentColor"
          fill="none" stroke-linecap="round"></path>
    <path d="M 54.328,20.254 C 61.652,20.788 61.651,20.668 68.984,20.902" stroke-width="3.372" stroke="currentColor"
          fill="none" stroke-linecap="round"></path>
    <path d="M 68.984,20.902 C 82.459,20.902 82.454,21.112 95.934,20.902" stroke-width="2.435" stroke="currentColor"
          fill="none" stroke-linecap="round"></path>
    <path d="M 95.934,20.902 C 99.027,20.976 99.025,20.902 102.117,20.902" stroke-width="3.381" stroke="currentColor"
          fill="none" stroke-linecap="round"></path>
    <path d="M 102.117,20.902 C 110.320,19.211 107.593,20.771 113.066,20.492" stroke-width="3.351" stroke="currentColor"
          fill="none" stroke-linecap="round"></path>
    <path d="M 113.066,20.492 C 111.444,22.468 114.339,21.086 110.156,24.652" stroke-width="4.517" stroke="currentColor"
          fill="none" stroke-linecap="round"></path>
    <path d="M 110.156,24.652 C 106.566,29.970 106.942,30.103 104.063,35.762" stroke-width="3.526" stroke="currentColor"
          fill="none" stroke-linecap="round"></path>
    <path d="M 104.063,35.762 C 101.557,42.235 101.328,42.089 99.680,48.891" stroke-width="3.153" stroke="currentColor"
          fill="none" stroke-linecap="round"></path>
    <path d="M 99.680,48.891 C 96.178,59.511 96.669,59.563 94.285,70.418" stroke-width="2.617" stroke="currentColor"
          fill="none" stroke-linecap="round"></path>
    <path d="M 94.285,70.418 C 92.764,83.073 92.111,82.944 91.547,95.758" stroke-width="2.287" stroke="currentColor"
          fill="none" stroke-linecap="round"></path>
    <path d="M 91.547,95.758 C 90.252,108.030 90.369,108.032 89.496,120.336" stroke-width="2.293" stroke="currentColor"
          fill="none" stroke-linecap="round"></path>
    <path d="M 89.496,120.336 C 88.401,137.074 88.469,137.065 87.980,153.828" stroke-width="1.997" stroke="currentColor"
          fill="none" stroke-linecap="round"></path>
    <path d="M 87.980,153.828 C 88.129,167.265 87.643,167.256 87.980,180.699" stroke-width="2.068" stroke="currentColor"
          fill="none" stroke-linecap="round"></path>
    <path d="M 87.980,180.699 C 87.589,196.462 87.806,196.464 87.336,212.227" stroke-width="1.942" stroke="currentColor"
          fill="none" stroke-linecap="round"></path>
    <path d="M 87.336,212.227 C 89.316,220.764 87.267,216.507 87.336,220.789" stroke-width="2.894" stroke="currentColor"
          fill="none" stroke-linecap="round"></path>
    <path d="M 87.336,220.789 C 81.993,216.906 84.308,220.827 77.320,212.352" stroke-width="3.845" stroke="currentColor"
          fill="none" stroke-linecap="round"></path>
    <path d="M 77.320,212.352 C 73.351,209.018 73.780,208.900 70.910,204.777" stroke-width="3.689" stroke="currentColor"
          fill="none" stroke-linecap="round"></path>
    <path d="M 70.910,204.777 C 67.541,199.633 68.050,199.807 66.719,193.930" stroke-width="3.438" stroke="currentColor"
          fill="none" stroke-linecap="round"></path>
    <path d="M 66.719,193.930 C 65.257,177.793 64.430,178.058 64.688,161.629" stroke-width="2.229" stroke="currentColor"
          fill="none" stroke-linecap="round"></path>
    <path d="M 64.688,161.629 C 64.688,148.955 64.241,148.969 64.688,136.281" stroke-width="2.249" stroke="currentColor"
          fill="none" stroke-linecap="round"></path>
    <path d="M 64.688,136.281 C 63.083,128.303 64.688,128.949 64.688,121.617" stroke-width="2.738" stroke="currentColor"
          fill="none" stroke-linecap="round"></path>
    <path d="M 64.688,121.617 C 66.393,117.676 65.427,118.535 69.375,116.746" stroke-width="3.854" stroke="currentColor"
          fill="none" stroke-linecap="round"></path>
    <path d="M 69.375,116.746 C 74.821,116.365 74.157,115.256 80.215,116.777" stroke-width="3.551" stroke="currentColor"
          fill="none" stroke-linecap="round"></path>
    <path d="M 80.215,116.777 C 87.547,117.704 87.569,117.340 94.871,118.695" stroke-width="3.153" stroke="currentColor"
          fill="none" stroke-linecap="round"></path>
    <path d="M 123.910,96.414 C 116.593,95.508 117.211,97.227 110.512,98.039" stroke-width="4.373" stroke="currentColor"
          fill="none" stroke-linecap="round"></path>
    <path d="M 110.512,98.039 C 100.794,102.677 101.099,101.957 92.922,109.313" stroke-width="2.813"
          stroke="currentColor" fill="none" stroke-linecap="round"></path>
    <path d="M 92.922,109.313 C 87.964,113.687 88.261,113.241 85.445,119.168" stroke-width="3.055" stroke="currentColor"
          fill="none" stroke-linecap="round"></path>
    <path d="M 85.445,119.168 C 83.381,124.986 83.034,124.416 83.063,130.770" stroke-width="3.177" stroke="currentColor"
          fill="none" stroke-linecap="round"></path>
    <path d="M 83.063,130.770 C 82.750,134.401 82.902,133.685 84.488,136.566" stroke-width="3.844" stroke="currentColor"
          fill="none" stroke-linecap="round"></path>
    <path d="M 84.488,136.566 C 87.529,139.565 86.793,139.438 91.148,140.844" stroke-width="3.787" stroke="currentColor"
          fill="none" stroke-linecap="round"></path>
    <path d="M 91.148,140.844 C 94.710,141.767 94.370,141.982 98.172,141.398" stroke-width="3.918" stroke="currentColor"
          fill="none" stroke-linecap="round"></path>
    <path d="M 98.172,141.398 C 103.553,141.032 103.258,140.857 108.246,139.023" stroke-width="3.613"
          stroke="currentColor" fill="none" stroke-linecap="round"></path>
    <path d="M 108.246,139.023 C 113.602,136.668 113.391,136.821 117.848,132.977" stroke-width="3.497"
          stroke="currentColor" fill="none" stroke-linecap="round"></path>
    <path d="M 117.848,132.977 C 124.374,127.695 123.807,127.796 128.656,121.281" stroke-width="3.060"
          stroke="currentColor" fill="none" stroke-linecap="round"></path>
    <path d="M 128.656,121.281 C 131.147,117.507 130.380,118.699 129.859,114.984" stroke-width="3.748"
          stroke="currentColor" fill="none" stroke-linecap="round"></path>
    <path d="M 129.859,114.984 C 126.151,110.419 127.596,110.550 121.555,107.367" stroke-width="4.049"
          stroke="currentColor" fill="none" stroke-linecap="round"></path>
    <path d="M 121.555,107.367 C 118.436,106.262 118.858,105.577 115.273,105.301" stroke-width="4.000"
          stroke="currentColor" fill="none" stroke-linecap="round"></path>
    <path d="M 137.957,115.426 C 140.771,117.250 140.590,116.119 143.223,116.813" stroke-width="5.455"
          stroke="currentColor" fill="none" stroke-linecap="round"></path>
    <path d="M 143.223,116.813 C 145.808,115.359 145.876,116.339 148.168,113.605" stroke-width="4.493"
          stroke="currentColor" fill="none" stroke-linecap="round"></path>
    <path d="M 148.168,113.605 C 150.381,112.216 150.195,112.099 151.996,110.293" stroke-width="4.381"
          stroke="currentColor" fill="none" stroke-linecap="round"></path>
    <path d="M 151.996,110.293 C 157.520,106.004 154.543,107.261 156.492,103.695" stroke-width="3.921"
          stroke="currentColor" fill="none" stroke-linecap="round"></path>
    <path d="M 156.492,103.695 C 151.702,99.507 155.232,100.864 147.422,100.012" stroke-width="4.438"
          stroke="currentColor" fill="none" stroke-linecap="round"></path>
    <path d="M 147.422,100.012 C 142.217,101.924 142.999,100.533 139.086,105.746" stroke-width="4.365"
          stroke="currentColor" fill="none" stroke-linecap="round"></path>
    <path d="M 139.086,105.746 C 132.649,112.591 133.798,112.201 130.582,120.566" stroke-width="3.142"
          stroke="currentColor" fill="none" stroke-linecap="round"></path>
    <path d="M 130.582,120.566 C 128.489,130.381 128.522,128.513 130.832,137.590" stroke-width="2.838"
          stroke="currentColor" fill="none" stroke-linecap="round"></path>
    <path d="M 130.832,137.590 C 133.767,140.466 131.866,140.770 137.336,141.344" stroke-width="3.466"
          stroke="currentColor" fill="none" stroke-linecap="round"></path>
    <path d="M 137.336,141.344 C 144.338,143.054 143.964,142.974 151.227,142.605" stroke-width="3.130"
          stroke="currentColor" fill="none" stroke-linecap="round"></path>
    <path d="M 151.227,142.605 C 159.405,141.354 159.375,142.075 167.410,139.387" stroke-width="2.868"
          stroke="currentColor" fill="none" stroke-linecap="round"></path>
    <path d="M 167.410,139.387 C 176.733,137.003 176.733,137.096 185.883,134.090" stroke-width="2.705"
          stroke="currentColor" fill="none" stroke-linecap="round"></path>
    <path d="M 185.883,134.090 C 191.733,132.072 191.770,132.216 197.484,129.813" stroke-width="3.069"
          stroke="currentColor" fill="none" stroke-linecap="round"></path>
    <path d="M 235.277,80.672 C 238.464,78.963 238.186,78.629 241.094,76.586" stroke-width="4.351" stroke="currentColor"
          fill="none" stroke-linecap="round"></path>
    <path d="M 241.094,76.586 C 249.089,69.546 248.915,69.514 256.180,61.773" stroke-width="3.724" stroke="currentColor"
          fill="none" stroke-linecap="round"></path>
    <path d="M 256.180,61.773 C 258.606,59.178 258.456,59.278 259.828,56.051" stroke-width="3.879" stroke="currentColor"
          fill="none" stroke-linecap="round"></path>
    <path d="M 259.828,56.051 C 262.369,50.318 261.993,50.510 262.953,44.438" stroke-width="3.450" stroke="currentColor"
          fill="none" stroke-linecap="round"></path>
    <path d="M 262.953,44.438 C 264.425,38.749 263.408,39.851 261.906,35.117" stroke-width="3.571" stroke="currentColor"
          fill="none" stroke-linecap="round"></path>
    <path d="M 261.906,35.117 C 255.471,27.528 256.740,27.669 247.582,22.277" stroke-width="2.863" stroke="currentColor"
          fill="none" stroke-linecap="round"></path>
    <path d="M 247.582,22.277 C 241.530,19.059 242.055,18.599 235.074,17.258" stroke-width="3.050" stroke="currentColor"
          fill="none" stroke-linecap="round"></path>
    <path d="M 235.074,17.258 C 227.748,14.609 227.944,15.268 220.410,14.695" stroke-width="3.014" stroke="currentColor"
          fill="none" stroke-linecap="round"></path>
    <path d="M 220.410,14.695 C 210.494,14.377 211.518,14.800 202.613,17.641" stroke-width="2.809" stroke="currentColor"
          fill="none" stroke-linecap="round"></path>
    <path d="M 202.613,17.641 C 198.349,20.425 198.721,19.252 196.863,24.445" stroke-width="3.373" stroke="currentColor"
          fill="none" stroke-linecap="round"></path>
    <path d="M 196.863,24.445 C 193.980,31.592 194.525,30.772 194.965,38.336" stroke-width="3.101" stroke="currentColor"
          fill="none" stroke-linecap="round"></path>
    <path d="M 194.965,38.336 C 196.679,48.480 196.350,47.822 201.602,56.906" stroke-width="2.736" stroke="currentColor"
          fill="none" stroke-linecap="round"></path>
    <path d="M 201.602,56.906 C 210.225,71.024 209.738,70.834 221.082,83.043" stroke-width="2.115" stroke="currentColor"
          fill="none" stroke-linecap="round"></path>
    <path d="M 221.082,83.043 C 229.580,90.910 228.773,91.557 238.699,97.973" stroke-width="2.184" stroke="currentColor"
          fill="none" stroke-linecap="round"></path>
    <path d="M 238.699,97.973 C 248.134,103.912 247.469,104.765 256.859,110.754" stroke-width="2.356"
          stroke="currentColor" fill="none" stroke-linecap="round"></path>
    <path d="M 256.859,110.754 C 265.569,117.179 265.249,117.333 272.930,124.816" stroke-width="2.451"
          stroke="currentColor" fill="none" stroke-linecap="round"></path>
    <path d="M 272.930,124.816 C 278.335,129.106 277.008,129.048 279.738,134.492" stroke-width="2.999"
          stroke="currentColor" fill="none" stroke-linecap="round"></path>
    <path d="M 279.738,134.492 C 281.484,142.290 281.243,140.268 278.746,147.141" stroke-width="3.094"
          stroke="currentColor" fill="none" stroke-linecap="round"></path>
    <path d="M 278.746,147.141 C 274.675,150.374 276.607,150.929 269.984,151.770" stroke-width="3.350"
          stroke="currentColor" fill="none" stroke-linecap="round"></path>
    <path d="M 269.984,151.770 C 262.275,154.360 262.580,153.972 254.555,154.336" stroke-width="2.979"
          stroke="currentColor" fill="none" stroke-linecap="round"></path>
    <path d="M 254.555,154.336 C 245.802,153.980 246.084,154.309 237.602,151.668" stroke-width="2.788"
          stroke="currentColor" fill="none" stroke-linecap="round"></path>
    <path d="M 237.602,151.668 C 228.815,149.828 229.501,149.384 221.953,145.145" stroke-width="2.808"
          stroke="currentColor" fill="none" stroke-linecap="round"></path>
    <path d="M 221.953,145.145 C 210.460,139.797 214.827,140.281 209.625,132.574" stroke-width="2.776"
          stroke="currentColor" fill="none" stroke-linecap="round"></path>
    <path d="M 209.625,132.574 C 213.205,122.481 208.632,123.987 218.297,113.523" stroke-width="3.235"
          stroke="currentColor" fill="none" stroke-linecap="round"></path>
    <path d="M 287.629,102.898 C 282.678,101.644 283.123,103.045 278.617,103.191" stroke-width="4.766"
          stroke="currentColor" fill="none" stroke-linecap="round"></path>
    <path d="M 278.617,103.191 C 272.351,106.197 272.526,105.512 267.324,110.633" stroke-width="3.492"
          stroke="currentColor" fill="none" stroke-linecap="round"></path>
    <path d="M 267.324,110.633 C 261.772,116.041 261.622,115.664 257.160,122.125" stroke-width="3.033"
          stroke="currentColor" fill="none" stroke-linecap="round"></path>
    <path d="M 257.160,122.125 C 253.393,125.885 254.397,125.771 252.574,130.094" stroke-width="3.441"
          stroke="currentColor" fill="none" stroke-linecap="round"></path>
    <path d="M 252.574,130.094 C 251.979,135.349 251.913,133.495 254.199,137.344" stroke-width="4.187"
          stroke="currentColor" fill="none" stroke-linecap="round"></path>
    <path d="M 254.199,137.344 C 257.707,137.842 256.303,139.234 261.223,137.863" stroke-width="4.038"
          stroke="currentColor" fill="none" stroke-linecap="round"></path>
    <path d="M 261.223,137.863 C 266.787,138.222 266.687,137.897 272.160,137.453" stroke-width="3.586"
          stroke="currentColor" fill="none" stroke-linecap="round"></path>
    <path d="M 314.887,40.758 C 313.333,44.257 313.561,44.330 312.234,47.902" stroke-width="4.636" stroke="currentColor"
          fill="none" stroke-linecap="round"></path>
    <path d="M 312.234,47.902 C 309.409,56.704 309.576,56.722 307.371,65.688" stroke-width="3.007" stroke="currentColor"
          fill="none" stroke-linecap="round"></path>
    <path d="M 307.371,65.688 C 304.870,76.384 304.950,76.360 303.316,87.215" stroke-width="2.600" stroke="currentColor"
          fill="none" stroke-linecap="round"></path>
    <path d="M 303.316,87.215 C 301.325,97.579 301.837,97.528 301.305,107.977" stroke-width="2.548"
          stroke="currentColor" fill="none" stroke-linecap="round"></path>
    <path d="M 301.305,107.977 C 301.824,123.418 301.274,123.340 303.215,138.738" stroke-width="2.075"
          stroke="currentColor" fill="none" stroke-linecap="round"></path>
    <path d="M 303.215,138.738 C 302.900,145.682 303.541,142.326 304.738,145.793" stroke-width="3.107"
          stroke="currentColor" fill="none" stroke-linecap="round"></path>
    <path d="M 304.738,145.793 C 308.165,142.409 307.189,145.940 311.793,139.254" stroke-width="4.235"
          stroke="currentColor" fill="none" stroke-linecap="round"></path>
    <path d="M 311.793,139.254 C 316.832,133.244 317.425,134.356 323.258,129.688" stroke-width="3.283"
          stroke="currentColor" fill="none" stroke-linecap="round"></path>
    <path d="M 325.727,132.785 C 324.241,135.524 325.350,135.326 324.973,137.867" stroke-width="5.450"
          stroke="currentColor" fill="none" stroke-linecap="round"></path>
    <path d="M 334.742,122.352 C 334.334,126.582 334.449,126.586 334.156,130.820" stroke-width="4.928"
          stroke="currentColor" fill="none" stroke-linecap="round"></path>
    <path d="M 334.156,130.820 C 333.741,133.636 334.041,133.576 334.156,136.340" stroke-width="4.430"
          stroke="currentColor" fill="none" stroke-linecap="round"></path>
    <path d="M 334.156,136.340 C 334.236,142.089 334.708,139.933 336.090,143.414" stroke-width="4.582"
          stroke="currentColor" fill="none" stroke-linecap="round"></path>
    <path d="M 336.090,143.414 C 338.362,142.276 337.365,144.326 340.414,140.813" stroke-width="4.939"
          stroke="currentColor" fill="none" stroke-linecap="round"></path>
    <path d="M 340.414,140.813 C 344.956,134.896 345.165,137.424 349.695,133.711" stroke-width="3.622"
          stroke="currentColor" fill="none" stroke-linecap="round"></path>
    <path d="M 349.695,133.711 C 352.581,135.174 352.280,133.064 355.063,137.148" stroke-width="4.649"
          stroke="currentColor" fill="none" stroke-linecap="round"></path>
    <path d="M 355.063,137.148 C 356.966,140.907 357.747,139.284 360.027,141.930" stroke-width="4.684"
          stroke="currentColor" fill="none" stroke-linecap="round"></path>
    <path d="M 360.027,141.930 C 365.507,143.456 364.646,143.473 370.422,142.281" stroke-width="4.414"
          stroke="currentColor" fill="none" stroke-linecap="round"></path>
    <path d="M 370.422,142.281 C 376.762,136.168 376.640,140.794 382.293,136.605" stroke-width="3.463"
          stroke="currentColor" fill="none" stroke-linecap="round"></path>
    <path d="M 382.293,136.605 C 386.777,140.179 387.110,136.986 391.117,143.918" stroke-width="4.369"
          stroke="currentColor" fill="none" stroke-linecap="round"></path>
    <path d="M 391.117,143.918 C 393.861,147.135 394.248,146.615 397.234,149.477" stroke-width="3.943"
          stroke="currentColor" fill="none" stroke-linecap="round"></path>
    <path d="M 422.223,135.113 C 419.327,130.098 419.018,132.510 415.813,129.906" stroke-width="4.258"
          stroke="currentColor" fill="none" stroke-linecap="round"></path>
    <path d="M 415.813,129.906 C 410.543,131.342 411.356,129.663 406.281,134.242" stroke-width="4.288"
          stroke="currentColor" fill="none" stroke-linecap="round"></path>
    <path d="M 406.281,134.242 C 402.104,137.267 402.258,136.979 399.242,141.180" stroke-width="3.686"
          stroke="currentColor" fill="none" stroke-linecap="round"></path>
    <path d="M 399.242,141.180 C 397.308,144.183 397.278,143.865 396.629,147.438" stroke-width="3.914"
          stroke="currentColor" fill="none" stroke-linecap="round"></path>
    <path d="M 396.629,147.438 C 395.601,150.950 396.002,150.441 396.629,153.695" stroke-width="4.050"
          stroke="currentColor" fill="none" stroke-linecap="round"></path>
    <path d="M 396.629,153.695 C 398.231,156.800 397.664,156.459 400.754,158.457" stroke-width="4.088"
          stroke="currentColor" fill="none" stroke-linecap="round"></path>
    <path d="M 400.754,158.457 C 403.490,160.116 403.047,159.963 406.262,160.020" stroke-width="4.171"
          stroke="currentColor" fill="none" stroke-linecap="round"></path>
    <path d="M 406.262,160.020 C 411.275,160.061 410.525,159.872 414.824,157.969" stroke-width="3.834"
          stroke="currentColor" fill="none" stroke-linecap="round"></path>
    <path d="M 414.824,157.969 C 417.388,155.770 417.289,156.516 418.289,152.930" stroke-width="4.041"
          stroke="currentColor" fill="none" stroke-linecap="round"></path>
    <path d="M 418.289,152.930 C 419.434,147.849 419.804,148.156 419.656,142.742" stroke-width="3.651"
          stroke="currentColor" fill="none" stroke-linecap="round"></path>
    <path d="M 419.949,138.523 C 422.488,140.196 422.578,140.018 425.207,141.512" stroke-width="5.202"
          stroke="currentColor" fill="none" stroke-linecap="round"></path>
    <path d="M 425.207,141.512 C 430.409,144.656 430.537,144.091 436.047,146.313" stroke-width="3.719"
          stroke="currentColor" fill="none" stroke-linecap="round"></path>
    <path d="M 436.047,146.313 C 441.832,147.814 441.630,147.953 447.648,148.105" stroke-width="3.436"
          stroke="currentColor" fill="none" stroke-linecap="round"></path>
    <path d="M 447.648,148.105 C 452.845,149.477 451.575,148.302 455.531,147.289" stroke-width="3.752"
          stroke="currentColor" fill="none" stroke-linecap="round"></path>
    <path d="M 455.531,147.289 C 460.019,141.854 458.978,144.481 459.914,138.113" stroke-width="4.139"
          stroke="currentColor" fill="none" stroke-linecap="round"></path>
    <path d="M 459.914,138.113 C 457.616,135.475 459.861,136.221 455.215,136.023" stroke-width="4.846"
          stroke="currentColor" fill="none" stroke-linecap="round"></path>
    <path d="M 455.215,136.023 C 443.023,138.634 444.053,138.573 432.789,144.309" stroke-width="2.767"
          stroke="currentColor" fill="none" stroke-linecap="round"></path>
    <path d="M 432.789,144.309 C 425.692,148.118 427.109,147.458 423.387,153.672" stroke-width="3.081"
          stroke="currentColor" fill="none" stroke-linecap="round"></path>
    <path d="M 423.387,153.672 C 421.925,160.392 421.481,158.263 424.367,164.598" stroke-width="3.310"
          stroke="currentColor" fill="none" stroke-linecap="round"></path>
    <path d="M 424.367,164.598 C 428.015,167.971 426.412,168.119 432.359,169.125" stroke-width="3.490"
          stroke="currentColor" fill="none" stroke-linecap="round"></path>
    <path d="M 432.359,169.125 C 439.349,170.720 438.959,170.878 446.254,170.410" stroke-width="3.200"
          stroke="currentColor" fill="none" stroke-linecap="round"></path>
    <path d="M 446.254,170.410 C 453.489,170.081 453.241,170.097 460.145,167.879" stroke-width="3.166"
          stroke="currentColor" fill="none" stroke-linecap="round"></path>
</svg>