<svg xmlns="http://www.w3.org/2000/svg" x="0px" y="0px" viewBox="0 0 30 30" enable-background="new 0 0 30 30" xml:space="preserve">
<g transform="translate(-422 -3443.543)">
	<g>
		<g>
			<path fill="none" stroke="currentColor" stroke-linecap="round" stroke-linejoin="round" d="M444.518,3454.833
				c1.4751,1.0679,2.8126,2.314,3.982,3.71c0,0-5.148,6.5-11.5,6.5c-1.0174-0.0059-2.0284-0.1624-3-0.4641"/>
			<path fill="none" stroke="currentColor" stroke-linecap="round" stroke-linejoin="round" d="M429.468,3462.2429
				c-1.4697-1.0657-2.8024-2.3083-3.968-3.7c0,0,5.148-6.5,11.5-6.5c0.8436,0.0039,1.6834,0.113,2.5,0.325"/>
			<path fill="none" stroke="currentColor" stroke-linecap="round" stroke-linejoin="round" d="M433.5,3458.543
				c0-1.9331,1.567-3.5,3.5-3.5"/>
			<path fill="none" stroke="currentColor" stroke-linecap="round" stroke-linejoin="round" d="M440.5,3458.543
				c0,1.9331-1.567,3.5-3.5,3.5"/>
			<path fill="none" stroke="currentColor" stroke-linecap="round" stroke-linejoin="round" d="M446.75,3448.793
				l-19.5,19.5"/>
		</g>
	</g>
</g>
</svg>
