<svg xmlns="http://www.w3.org/2000/svg" x="0px" y="0px" viewBox="0 0 30 30" enable-background="new 0 0 30 30" xml:space="preserve">
<g transform="translate(-277.961 -3447)">
	<g>
		<g>
			<path fill="none" stroke="currentColor" stroke-linecap="round" stroke-linejoin="round" d="M292.961,3465.5
				c1.933,0,3.5-1.5669,3.5-3.5002c0-1.9331-1.567-3.5-3.5-3.5s-3.5,1.5669-3.5,3.5
				C289.461,3463.9331,291.028,3465.5,292.961,3465.5L292.961,3465.5z"/>
			<path fill="none" stroke="currentColor" stroke-linecap="round" stroke-linejoin="round" d="M304.337,3461.6719
				c-1.163-1.3201-5.814-6.1721-11.376-6.1721s-10.213,4.8521-11.376,6.1721c-0.1635,0.188-0.1635,0.468,0,0.656
				c1.163,1.3201,5.814,6.1721,11.376,6.1721s10.213-4.8521,11.376-6.1721C304.5005,3462.1399,304.5005,3461.8599,304.337,3461.6719
				z"/>
		</g>
	</g>
</g>
</svg>
