<?xml version="1.0" encoding="UTF-8"?>
<svg id="Ebene_1" data-name="Ebene 1" xmlns="http://www.w3.org/2000/svg" version="1.1" viewBox="0 0 144.7 30.4" style="background-color: #16112b!important; padding-left:1rem; padding-right:1rem">
  <defs>
    <style>
      .cls-1 {
        fill: #4fee62;
      }

      .cls-1, .cls-2, .cls-3 {
        stroke-width: 0px;
      }

      .cls-2 {
        fill: #14ebc9;
      }

      .cls-3 {
        fill: #fff;
      }
    </style>
  </defs>
  <g>
    <path class="cls-3" d="M23.4,0v30.3h-6.9v-12H6.9v12H0V0h6.9v11.6h9.5V0h6.9Z"/>
    <path class="cls-3" d="M46.3,25.5h-11.2l-1.5,4.8h-7.6L36.2,0h8.8l10.3,30.3h-7.6l-1.5-4.8ZM44.2,19l-3.5-11.1-3.5,11.1h7.1Z"/>
    <path class="cls-3" d="M74.6,30.3l-9.7-14v14h-6.9V0h6.9v13.1L74.1,0h7.9l-10.2,14.7,10.6,15.5h-7.9Z"/>
  </g>
  <path class="cls-1" d="M124.8,0c-.3,5.5-4.8,9.9-10.3,9.9S104.4,5.5,104.1,0h-6.9c.3,9.3,7.9,16.7,17.2,16.7S131.4,9.3,131.7,0h-6.9Z"/>
  <path class="cls-2" d="M91.9,30.3c.3-5.5,4.8-9.9,10.3-9.9s10.1,4.4,10.3,9.9h6.9c-.3-9.3-7.9-16.7-17.2-16.7s-16.9,7.5-17.2,16.7h6.9Z"/>
  <polygon class="cls-3" points="128.6 16.8 128.6 22.1 131.7 22.1 131.7 20.9 129.8 20.9 129.8 16.8 128.6 16.8"/>
  <path class="cls-3" d="M123.2,25.9c.2-.4.6-.6,1-.6s.8.3.8.8-.4.9-.7,1.2l-2.1,2.2v.9h4.1v-1.1h-2.3l1.3-1.3c.6-.6,1-1.3,1-1.9,0-1.2-1-1.9-2-1.9s-1.6.4-2,1.2l1,.6Z"/>
  <path class="cls-3" d="M129.5,30.4c1.1,0,2.2-.6,2.2-2s-1.1-2-2.1-2h-.7v-1.1h2.4v-1.1h-3.4l-.2,3.4h1.8c.6,0,.9.3.9.8s-.3.8-1,.8-.9-.2-1.1-.6l-1,.6c.4.8,1.1,1.2,2.1,1.2Z"/>
  <path class="cls-3" d="M124.8,22.3c1.5,0,2.7-1.2,2.7-2.7s-1.2-2.7-2.7-2.7-2.7,1.2-2.7,2.7,1.2,2.7,2.7,2.7ZM124.8,18c.9,0,1.6.7,1.6,1.6s-.7,1.6-1.6,1.6-1.6-.7-1.6-1.6.7-1.6,1.6-1.6Z"/>
</svg>